<?xml version="1.0" encoding="utf-8"?>
<!-- Generator: Adobe Illustrator 16.0.3, SVG Export Plug-In . SVG Version: 6.00 Build 0)  -->
<!DOCTYPE svg PUBLIC "-//W3C//DTD SVG 1.1//EN" "http://www.w3.org/Graphics/SVG/1.1/DTD/svg11.dtd">
<svg version="1.1" id="molde_bone_direita" image-rendering="optimizeQuality" text-rendering="geometricPrecision" shape-rendering="geometricPrecision" xmlns="http://www.w3.org/2000/svg" xmlns:xlink="http://www.w3.org/1999/xlink" x="0px" y="0px" width="450px" height="215px" viewBox="0 0 450 215" enable-background="new 0 0 450 215" xml:space="preserve">
	<path d="M151.27,5.674c1.841-0.255,3.189-0.401,3.864-0.474c0.165-0.018,0.29-0.031,0.384-0.041c0.29-0.032,0.29-0.032,0.29-0.032
	s0,0-0.228-0.122c-0.228-0.121-0.683-0.365-0.944-0.613c-0.262-0.25-0.328-0.504-0.3-0.891c0.026-0.385,0.148-0.902,0.74-1.408
	c0.592-0.508,1.655-1.007,2.797-1.328c1.143-0.322,2.364-0.468,3.855-0.562c1.492-0.094,3.253-0.137,4.934-0.174
	c1.68-0.036,3.277-0.067,4.832,0.08c1.556,0.146,3.068,0.467,4.135,0.799c1.066,0.331,1.686,0.67,2.074,1.084
	c0.39,0.413,0.547,0.899,0.614,1.291c0.067,0.392,0.043,0.689-0.14,0.966c-0.182,0.276-0.522,0.531-0.793,0.731
	c-0.271,0.201-0.471,0.347-0.571,0.419c-0.1,0.072-0.101,0.073,0.854,0.198c0.953,0.125,2.86,0.374,5.406,0.76
	c2.546,0.385,5.729,0.907,9.605,1.636c3.876,0.73,8.444,1.665,13.438,2.79c4.995,1.124,10.414,2.436,14.527,3.481
	c4.113,1.044,6.919,1.822,10.625,2.873c3.705,1.051,8.312,2.376,13.543,4.131c5.229,1.756,11.088,3.943,15.873,5.887
	c4.787,1.944,8.506,3.645,13.137,6.112c4.629,2.467,10.17,5.698,15.029,9.063c4.86,3.366,9.039,6.866,12.211,10.097
	c3.173,3.232,5.334,6.198,7.12,9.284c1.786,3.085,3.195,6.294,4.605,10.134c1.409,3.84,2.819,8.312,3.888,12.551
	c1.069,4.241,1.799,8.25,2.965,16.756c1.167,8.505,2.771,21.506,3.772,29.64c1.003,8.134,1.403,11.397,1.719,13.667
	c0.316,2.27,0.544,3.542,0.663,4.206s0.128,0.719,0.133,0.752c0.005,0.032,0.006,0.046,0.014,0.056
	c0.008,0.008,0.021,0.017,1.192,0.079c1.173,0.063,3.506,0.187,8.153,0.532s11.609,0.917,16.52,1.3
	c4.908,0.382,7.765,0.577,9.78,0.767c2.018,0.188,3.195,0.369,5.067,0.461c1.871,0.091,4.435,0.091,6.026,0.225
	c1.591,0.135,2.211,0.4,3.28,0.555c1.069,0.15,2.588,0.188,4.289,0.284s3.584,0.257,4.933,0.413c1.35,0.157,2.163,0.314,2.783,0.383
	c0.619,0.066,1.044,0.043,2.558,0.115c1.514,0.073,4.112,0.243,5.813,0.426c1.701,0.184,2.504,0.377,3.208,0.449
	c0.704,0.073,1.313,0.023,2.85,0.091s4.004,0.25,5.583,0.433c1.579,0.182,2.272,0.363,3.392,0.479
	c1.116,0.116,2.66,0.165,4.294,0.28c1.635,0.114,3.358,0.297,4.646,0.468c0.673,0.088,1.227,0.173,1.734,0.249
	c0.466,0.07,0.896,0.133,1.347,0.183c0.941,0.104,1.976,0.151,3.609,0.242c1.634,0.092,3.869,0.225,6.402,0.583
	s5.363,0.942,7.271,1.459c1.907,0.517,2.893,0.966,3.755,1.494c0.862,0.527,1.604,1.136,2.339,1.992s1.465,1.963,1.949,3.129
	c0.486,1.166,0.73,2.396,0.833,3.476c0.019,0.188,0.032,0.373,0.042,0.554c0.05,0.853,0.023,1.614,0.02,2.331
	c-0.007,0.871,0.019,1.672-0.163,2.887c-0.184,1.216-0.571,2.844-1.246,4.454c-0.674,1.608-1.635,3.202-2.795,4.938
	c-1.16,1.737-2.521,3.62-4.181,5.461c-1.658,1.842-3.614,3.641-5.304,5.129c-1.688,1.487-3.111,2.666-4.994,3.99
	c-1.883,1.325-4.228,2.795-6.513,4.04c-2.284,1.246-4.508,2.267-6.677,3.117s-4.283,1.53-6.695,2.217
	c-2.412,0.688-5.121,1.38-8.153,1.976c-3.029,0.596-6.384,1.094-9.453,1.47c-3.066,0.378-5.85,0.632-8.438,0.87
	c-2.589,0.236-4.981,0.455-9.12,0.66c-4.137,0.207-10.018,0.402-14.188,0.539c-4.173,0.136-6.633,0.216-9.153,0.27
	c-2.521,0.055-5.104,0.086-9.544,0.079c-4.441-0.006-10.741-0.048-16.364-0.101c-5.623-0.051-10.566-0.112-16.018-0.232
	c-5.45-0.122-11.402-0.305-16.725-0.463c-5.324-0.158-10.014-0.291-14.15-0.419c-4.137-0.127-7.723-0.249-11.629-0.358
	c-3.905-0.109-8.133-0.207-14.16-0.596c-6.026-0.389-13.852-1.068-20.152-1.652c-6.299-0.582-11.075-1.068-14.848-1.385
	c-3.773-0.316-6.543-0.461-9.563-0.832s-6.288-0.967-9.122-1.418c-2.833-0.453-5.233-0.764-6.642-0.932
	c-1.408-0.17-1.824-0.195-2.637-0.104c-0.494,0.058-1.137,0.157-2.016,0.29c-0.564,0.085-1.229,0.184-2.014,0.292
	c-2.008,0.275-4.815,0.616-8.047,1.022c-3.231,0.406-6.89,0.882-11.3,1.203c-4.411,0.321-9.575,0.492-14.01,0.687
	c-4.435,0.195-8.142,0.414-12.363,0.614c-4.223,0.199-8.961,0.382-13.153,0.474c-4.191,0.093-7.837,0.093-12.327,0.109
	c-4.489,0.018-9.823,0.055-13.311,0.057c-3.488,0.002-5.128-0.032-6.115-0.116c-0.987-0.082-1.32-0.217-1.572-0.443
	c-0.25-0.229-0.417-0.551-0.523-0.769c-0.106-0.217-0.152-0.329-0.175-0.386s-0.022-0.057-0.07,0.122
	c-0.047,0.178-0.141,0.532-0.327,0.797s-0.467,0.438-1.595,0.57c-1.129,0.135-3.106,0.229-6.33,0.218
	c-3.225-0.012-7.696-0.126-12.982-0.251c-5.285-0.124-11.385-0.258-17.728-0.515c-6.342-0.254-12.928-0.631-17.922-0.965
	c-4.993-0.334-8.396-0.627-11.707-1.031c-3.311-0.403-6.53-0.92-9.653-1.502c-3.122-0.584-6.148-1.233-8.342-1.813
	c-2.192-0.58-3.554-1.091-4.449-1.573c-0.896-0.482-1.328-0.938-1.622-1.259c-0.295-0.317-0.453-0.501-0.551-0.646
	c-0.097-0.146-0.134-0.256-0.191-0.455c-0.057-0.201-0.136-0.492-0.182-2.625c-0.046-2.133-0.058-6.105,0.034-11.435
	c0.091-5.327,0.285-12.011,0.516-17.321c0.23-5.31,0.498-9.246,0.747-12.086s0.48-4.584,1.634-8.699
	c1.155-4.116,3.233-10.604,5.354-17.008c2.119-6.402,4.283-12.722,5.959-17.448c1.677-4.726,2.868-7.861,4.022-10.838
	c1.153-2.977,2.271-5.796,4.082-10.146c1.811-4.35,4.313-10.231,6.72-15.225c2.407-4.994,4.714-9.101,6.95-12.734
	c2.235-3.633,4.398-6.792,6.549-9.508s4.289-4.988,6.349-7.059c2.06-2.072,4.04-3.943,6.07-5.753
	c2.028-1.811,4.105-3.56,6.293-5.188s4.483-3.135,6.659-4.538c2.174-1.404,4.228-2.704,5.917-3.749
	c1.688-1.044,3.013-1.835,5.115-2.873c2.103-1.04,4.981-2.327,8.062-3.597c3.081-1.27,6.361-2.521,11.106-4.094
	s10.953-3.469,15.729-4.879c4.775-1.409,8.116-2.333,11.228-3.158c3.11-0.827,5.989-1.556,9.161-2.31
	c3.171-0.752,6.634-1.53,9.532-2.102C147.097,6.294,149.429,5.929,151.27,5.674z"/>
</svg>