<?xml version="1.0" encoding="utf-8"?>
<!-- Generator: Adobe Illustrator 16.0.3, SVG Export Plug-In . SVG Version: 6.00 Build 0)  -->
<!DOCTYPE svg PUBLIC "-//W3C//DTD SVG 1.1//EN" "http://www.w3.org/Graphics/SVG/1.1/DTD/svg11.dtd">
<svg version="1.1" class="detalhes_bone" image-rendering="optimizeQuality" text-rendering="geometricPrecision" shape-rendering="geometricPrecision" xmlns="http://www.w3.org/2000/svg" xmlns:xlink="http://www.w3.org/1999/xlink" x="0px" y="0px" width="310px" height="230px" viewBox="0 0 310 230" enable-background="new 0 0 310 230" xml:space="preserve">
	<defs>
		<path id="curva_verso" fill="none" stroke="#000000" stroke-miterlimit="10" d="M9.548,199c10.702,11.498,53.954,19.09,59.203,17.75"/>
		<path id="curva_verso_2" fill="none" stroke="#000000" stroke-miterlimit="10" d="M242.968,216.701c5.249,1.34,48.501-6.252,59.202-17.75"/>
	</defs>
	<g class="nome_verso">
		<text text-anchor="start"><textPath class="previewNome" href="#curva_verso_2" startOffset="10%"></textPath></text>
		<text text-anchor="end" style="display:none;"><textPath class="previewNome" href="#curva_verso" startOffset="90%"></textPath></text>
	</g>
	<path class="aba" d="M3.58,181.577c-0.076-3.745-0.033-7.536,0.011-11.329c-0.019,0.392-0.026,0.504-0.031,0.569
	c-0.006,0.09-0.006,0.09-0.333,0.496c-0.327,0.406-0.979,1.218-1.492,2.15c-0.512,0.933-0.883,1.985-1.143,3.01
	c-0.258,1.024-0.406,2.021-0.283,3.751c0.123,1.729,0.514,4.194,0.963,5.957c0.448,1.764,0.955,2.824,1.293,3.56
	c0.338,0.734,0.51,1.143,0.628,1.507c0.119,0.361,0.184,0.68,0.38,2.162c0.011,0.084,0.022,0.172,0.034,0.262
	c0.066-0.594,0.117-1.258,0.145-2.008C3.852,189.02,3.655,185.321,3.58,181.577z M309.734,180.857
	c0.009-1.498-0.11-2.893-0.318-3.987c-0.208-1.093-0.506-1.885-0.894-2.648c-0.388-0.763-0.865-1.497-1.105-1.864
	c-0.156-0.237-0.213-0.322-0.249-0.867c-0.023,2.276-0.049,4.553-0.092,7.424c-0.042,2.871-0.104,6.334-0.153,9.22
	c-0.047,2.699-0.085,4.892-0.121,7.051c0.013-0.034,0.034-0.073,0.061-0.116c0.04-0.07,0.094-0.151,0.148-0.243
	s0.111-0.193,0.154-0.318s0.072-0.271,0.088-0.384c0.017-0.112,0.021-0.19,0.019-0.278c-0.002-0.088-0.011-0.186-0.015-0.259
	s-0.004-0.123,0.029-0.184c0.032-0.062,0.098-0.135,0.151-0.271c0.055-0.137,0.098-0.336,0.118-0.543
	c0.02-0.205,0.018-0.418,0.02-0.563c0.003-0.145,0.009-0.223,0.007-0.285c-0.002-0.063-0.013-0.112-0.024-0.166
	c-0.012-0.051-0.027-0.106-0.021-0.178c0.006-0.071,0.032-0.159,0.054-0.219c0.021-0.061,0.038-0.094,0.034-0.307
	c-0.005-0.213-0.028-0.607-0.044-0.804s-0.021-0.196,0.292-0.917c0.314-0.719,0.949-2.156,1.334-3.676
	C309.591,183.955,309.726,182.355,309.734,180.857z"/>
	<path class="fecho" d="M232.867,225.539c-0.002-0.97-0.008-2.453-0.02-3.271s-0.031-0.97-0.052-1.056c-0.019-0.085-0.039-0.104-0.137-0.161
	c-0.099-0.057-0.274-0.149-0.344-0.257c-0.067-0.108-0.028-0.231,0.091-0.346c0.12-0.114,0.322-0.223,0.422-0.302
	c0.101-0.078,0.101-0.127,0.109-1.604c0.01-1.476,0.029-4.38-0.012-8.977c-0.039-4.598-0.139-10.888-0.191-14.295
	c-0.037-2.339-0.051-3.318-0.135-4.525c-0.039,0.023-0.084,0.045-0.139,0.064c-0.101,0.031-0.235,0.052-0.625,0.068
	c-0.391,0.018-1.037,0.032-2.816,0.133c-1.777,0.1-4.686,0.287-7.938,0.414s-6.846,0.195-10.201,0.283
	c-3.354,0.088-6.469,0.196-9.195,0.266c-2.729,0.067-5.07,0.098-7.685,0.127c-2.615,0.029-5.505,0.059-10.294,0.122
	s-11.479,0.161-16.969,0.2s-9.779,0.021-13.609,0c-3.83-0.02-7.199-0.039-10.475-0.073s-6.459-0.083-9.897-0.137
	c-3.438-0.054-7.131-0.112-10.349-0.147c-3.217-0.033-5.959-0.043-8.672-0.088c-2.713-0.043-5.397-0.122-8.434-0.23
	c-3.036-0.107-6.425-0.244-9.104-0.352c-2.678-0.108-4.647-0.188-6.361-0.27c-1.714-0.083-3.173-0.172-4.52-0.24
	s-2.581-0.117-3.615-0.195c-0.887-0.068-1.626-0.156-2.344-0.248c-0.107,2.025-0.156,4.37-0.186,8.316
	c-0.039,5.162-0.049,13.065-0.056,17.118c-0.007,4.052-0.012,4.253,0.022,4.375c0.034,0.122,0.107,0.167,0.184,0.238
	c0.076,0.071,0.154,0.169,0.157,0.286s-0.071,0.255-0.159,0.345c-0.089,0.091-0.192,0.135-0.238,0.241
	c-0.047,0.104-0.037,0.271-0.027,1.055c0.01,0.783,0.019,2.184-0.007,3.139c-0.026,0.93-0.087,1.438-0.149,1.933
	c0.025-0.055,0.183-0.046,1.162,0.011c1.168,0.067,3.502,0.202,10.787,0.571c7.284,0.369,19.52,0.974,27.946,1.315
	c8.428,0.344,13.048,0.425,19.553,0.498c6.505,0.074,14.896,0.139,24.244,0.106c9.351-0.033,19.659-0.163,26.612-0.286
	c6.955-0.121,10.553-0.236,12.977-0.42c2.426-0.184,3.674-0.436,4.529-0.639c0.854-0.201,1.316-0.353,1.545-0.428
	c0.229-0.076,0.228-0.076,1.422-0.086c1.195-0.011,3.586-0.031,5.686-0.09c2.101-0.058,3.908-0.153,5.748-0.225
	c1.842-0.069,3.714-0.114,5.07-0.166c1.357-0.053,2.199-0.112,3.23-0.167s2.252-0.106,2.861-0.131
	c0.463-0.019,0.572-0.022,0.596-0.021C232.869,226.904,232.869,226.447,232.867,225.539z M89.329,206.755
	c0.255,0.284,0.527,0.673,0.729,1.007c0.2,0.335,0.331,0.614,0.419,0.984c0.09,0.371,0.139,0.834,0.123,1.264
	c-0.016,0.428-0.097,0.822-0.225,1.134c-0.126,0.312-0.3,0.543-0.495,0.759c-0.194,0.217-0.41,0.421-0.654,0.59
	c-0.244,0.168-0.516,0.303-0.802,0.395c-0.287,0.092-0.588,0.142-0.941,0.137c-0.354-0.006-0.76-0.064-1.14-0.195
	c-0.38-0.131-0.733-0.334-1.02-0.541s-0.506-0.417-0.715-0.699c-0.208-0.281-0.404-0.633-0.551-0.971
	c-0.147-0.336-0.245-0.656-0.292-0.952s-0.045-0.564-0.016-0.813c0.03-0.251,0.086-0.48,0.164-0.73
	c0.079-0.249,0.18-0.519,0.319-0.781c0.14-0.262,0.318-0.516,0.522-0.738c0.204-0.221,0.433-0.408,0.591-0.533
	c0.158-0.124,0.245-0.188,0.516-0.263c0.271-0.077,0.727-0.168,1.052-0.198c0.326-0.033,0.522-0.006,0.701,0.041
	c0.179,0.049,0.34,0.117,0.5,0.197c0.161,0.082,0.319,0.174,0.519,0.311C88.833,206.291,89.073,206.471,89.329,206.755z"/>
	<path class="vies" d="M138.631,134.342c3.002-0.303,5.754-0.489,8.261-0.602c2.507-0.113,4.771-0.152,6.114-0.212
	c1.345-0.06,1.77-0.142,2.038-0.204c0.267-0.063,0.375-0.106,0.511-0.097c0.139,0.011,0.305,0.074,0.618,0.125
	c0.313,0.052,0.774,0.091,1.974,0.142c1.199,0.053,3.139,0.116,5.338,0.226c2.198,0.11,4.657,0.267,8.119,0.571
	c3.462,0.303,7.928,0.754,11.983,1.293c4.056,0.538,7.698,1.164,11.142,2.012c3.441,0.848,6.684,1.915,9.387,3.018
	c2.704,1.102,4.868,2.238,7.014,3.613c2.145,1.377,4.27,2.992,6.063,4.696c1.792,1.705,3.252,3.497,4.555,5.323
	c1.303,1.828,2.448,3.688,3.511,5.568c0.467,0.826,0.919,1.656,1.351,2.5c0.551,1.076,1.072,2.174,1.559,3.313
	c0.866,2.033,1.621,4.197,2.109,6.137c0.49,1.939,0.717,3.654,1.07,6.791c0.355,3.139,0.841,7.699,1.086,10.243
	c0.076,0.798,0.129,1.396,0.168,1.948c0.084,1.207,0.098,2.187,0.135,4.525c0.053,3.407,0.152,9.697,0.191,14.295
	c0.041,4.597,0.021,7.501,0.012,8.977c-0.009,1.477-0.009,1.525-0.109,1.604c-0.1,0.079-0.302,0.188-0.422,0.302
	c-0.119,0.114-0.158,0.237-0.091,0.346c0.069,0.107,0.245,0.2,0.344,0.257c0.098,0.057,0.118,0.076,0.137,0.161
	c0.021,0.086,0.04,0.237,0.052,1.056s0.018,2.302,0.02,3.271c0.002,0.908,0.002,1.365,0.002,1.795c0.008,0,0.006,0,0.006,0
	c-0.002,0.002-0.006,0.006-0.006,0.047c0,0.025,0,0.065,0.002,0.127c0.004,0.167,0.017,0.496,0.068,0.734s0.144,0.389,0.409,0.509
	c0.265,0.122,0.704,0.216,1.229,0.217s1.138-0.091,1.551-0.146c0.412-0.055,0.627-0.074,0.74-0.068
	c0.115,0.006,0.129,0.037,0.158,0.071c0.029,0.032,0.072,0.069,0.146,0.091c0.076,0.02,0.184,0.023,0.283,0.004
	c0.099-0.021,0.188-0.066,0.25-0.111c0.059-0.047,0.09-0.094,0.13-0.129c0.021-0.021,0.045-0.037,0.164-0.066
	c0.308-5,0.608-10.033,0.632-16.18c0.025-6.334-0.244-13.852-0.477-19.961c-0.233-6.109-0.43-10.811-0.834-14.532
	c-0.402-3.722-1.016-6.466-2.093-10.04s-2.62-7.982-4.31-11.508c-1.689-3.526-3.525-6.171-5.521-8.668
	c-1.996-2.498-4.15-4.849-6.721-7.113c-2.571-2.266-5.559-4.444-8.986-6.207s-7.297-3.109-12.476-4.322
	c-5.179-1.212-11.667-2.289-16.063-2.998c-4.396-0.711-6.698-1.054-10.333-1.287c-3.637-0.232-8.606-0.354-13.051-0.416
	c-4.445-0.061-8.362-0.061-12.169,0.159c-3.809,0.221-7.505,0.661-13.247,1.519c-5.742,0.857-13.529,2.13-19.356,3.563
	c-5.828,1.433-9.696,3.023-13.48,5.289c-3.783,2.266-7.48,5.203-10.002,7.928c-2.522,2.723-3.869,5.232-5.326,7.693
	c-1.457,2.462-3.024,4.874-4.402,7.481c-1.377,2.607-2.564,5.411-3.6,10.143c-1.034,4.731-1.916,11.393-2.43,18.726
	c-0.514,7.334-0.661,15.341-0.676,21.939c-0.016,6.6,0.101,11.79,0.24,14.71c0.14,2.92,0.303,3.569,0.466,4.217
	c0.033,0.011,0.062,0.022,0.093,0.037c0.156,0.071,0.36,0.208,0.48,0.259c0.121,0.053,0.158,0.021,0.21-0.014
	c0.053-0.033,0.123-0.068,0.654-0.043c0.532,0.025,1.525,0.111,2.167,0.107c0.642-0.004,0.931-0.098,1.123-0.294
	c0.191-0.195,0.286-0.494,0.333-0.738c0.047-0.245,0.047-0.438,0.047-0.533c0-0.015,0-0.028,0.005-0.039
	c0.062-0.495,0.123-1.003,0.149-1.933c0.026-0.955,0.017-2.355,0.007-3.139c-0.01-0.783-0.02-0.95,0.027-1.055
	c0.046-0.106,0.149-0.15,0.238-0.241c0.088-0.09,0.162-0.228,0.159-0.345s-0.081-0.215-0.157-0.286
	c-0.076-0.071-0.15-0.116-0.184-0.238c-0.034-0.122-0.029-0.323-0.022-4.375c0.007-4.053,0.017-11.956,0.056-17.118
	c0.03-3.946,0.078-6.291,0.186-8.316c0.033-0.625,0.072-1.22,0.118-1.82c0.196-2.557,0.52-5.25,0.838-8.066
	c0.317-2.816,0.631-5.754,0.993-7.791s0.774-3.174,1.396-4.75c0.617-1.564,1.441-3.563,2.588-5.871
	c0.009-0.018,0.018-0.036,0.027-0.055c1.161-2.332,2.649-4.977,4.06-7.072s2.742-3.643,4.104-5.131
	c1.361-1.49,2.752-2.92,4.388-4.158c1.635-1.239,3.516-2.287,5.269-3.169c1.753-0.882,3.379-1.597,5.206-2.272
	c1.827-0.676,3.854-1.313,5.857-1.846c2.002-0.533,3.981-0.965,6.464-1.439c2.482-0.476,5.471-0.995,8.59-1.465
	C132.377,135.066,135.629,134.646,138.631,134.342z"/>
	<path class="botao" d="M159.469,3.416c1.092-0.037,1.985-0.055,2.512-0.089c0.527-0.033,0.686-0.083,0.792-0.143s0.161-0.132,0.216-0.203
	c-0.102-0.031-0.105-0.035-0.135-0.285c-0.029-0.249-0.082-0.743-0.199-1.099c-0.119-0.357-0.303-0.578-0.678-0.784
	c-0.376-0.207-0.943-0.398-1.775-0.531c-0.832-0.133-1.931-0.206-3.24-0.249c-1.311-0.043-2.833-0.055-4.044,0.016
	c-1.213,0.072-2.114,0.227-2.777,0.41c-0.664,0.184-1.088,0.396-1.349,0.704c-0.261,0.309-0.359,0.713-0.406,1.012
	c-0.048,0.299-0.045,0.494-0.043,0.591c0,0.03,0,0.05-0.001,0.065c-0.001,0.12-0.001,0.233,0.01,0.301
	c0.013,0.081,0.041,0.099,0.721,0.157c0.679,0.059,2.01,0.157,3.239,0.208s2.355,0.058,3.564,0.034
	C157.084,3.508,158.375,3.453,159.469,3.416z"/>
	<path class="ilhoses" d="M46.704,32.887c1.044-0.736,2.107-1.412,2.761-1.818c0.653-0.407,0.897-0.544,1.142-0.681c-0.065,0.016-0.102,0-0.176-0.051
	c-0.073-0.052-0.183-0.137-0.342-0.184c-0.159-0.047-0.368-0.055-0.563-0.027c-0.196,0.029-0.379,0.094-0.594,0.182
	c-0.214,0.088-0.459,0.198-0.744,0.393c-0.285,0.197-0.609,0.479-0.811,0.654c-0.203,0.174-0.282,0.244-0.401,0.292
	c-0.12,0.048-0.278,0.075-0.398,0.148c-0.119,0.075-0.199,0.197-0.26,0.277c-0.063,0.08-0.108,0.117-0.174,0.145
	c-0.066,0.029-0.154,0.049-0.243,0.083c-0.089,0.034-0.179,0.081-0.373,0.189c-0.193,0.109-0.492,0.281-0.734,0.455
	c-0.243,0.175-0.431,0.352-0.631,0.525c-0.2,0.174-0.413,0.343-0.521,0.595c-0.107,0.253-0.112,0.587-0.1,0.801
	c0.012,0.215,0.041,0.309,0.061,0.352C44.631,34.42,45.658,33.624,46.704,32.887z M266.777,35.064
	c0.036-0.103,0.109-0.317,0.116-0.544c0.007-0.228-0.052-0.467-0.212-0.71c-0.16-0.242-0.424-0.487-0.781-0.749
	c-0.357-0.263-0.809-0.542-1.086-0.698c-0.279-0.157-0.385-0.189-0.453-0.206c-0.066-0.016-0.096-0.016-0.125-0.063
	c-0.031-0.047-0.064-0.141-0.104-0.206c-0.039-0.066-0.082-0.103-0.121-0.132c-0.039-0.031-0.072-0.056-0.115-0.074
	s-0.096-0.031-0.126-0.037c-0.03-0.006-0.038-0.006-0.065-0.01s-0.071-0.012-0.152-0.035c-0.082-0.022-0.2-0.059-0.289-0.094
	c-0.087-0.034-0.145-0.067-0.179-0.126c-0.035-0.059-0.047-0.145-0.062-0.218c-0.015-0.074-0.03-0.135-0.191-0.243
	c-0.16-0.108-0.466-0.261-0.756-0.421c-0.291-0.161-0.567-0.327-0.727-0.417c-0.158-0.089-0.197-0.103-0.322-0.124
	c-0.123-0.022-0.334-0.051-0.518,0.018s-0.343,0.236-0.424,0.319c-0.025,0.026-0.043,0.044-0.076,0.044
	c0.686,0.508,1.371,1.016,2.42,1.723c1.051,0.707,2.465,1.612,3.244,2.162c0.779,0.549,0.923,0.739,1.068,0.931
	c0-0.001,0-0.001,0.002,0C266.746,35.149,266.756,35.127,266.777,35.064z M217.673,54.143c0.736,0.106,1.612,0.101,2.14,0.076
	c0.526-0.024,0.702-0.069,0.982-0.251c0.279-0.184,0.66-0.507,0.964-0.929s0.528-0.94,0.612-1.582
	c0.084-0.641,0.024-1.405-0.264-2.121c-0.29-0.715-0.809-1.38-1.357-1.914c-0.549-0.534-1.127-0.937-1.836-1.255
	c-0.711-0.317-1.553-0.553-2.42-0.563c-0.866-0.01-1.758,0.206-2.463,0.549c-0.705,0.342-1.225,0.813-1.527,1.684
	c-0.304,0.873-0.393,2.146,0.184,3.174c0.574,1.028,1.813,1.812,2.732,2.312C216.338,53.823,216.936,54.039,217.673,54.143z
	 M98.458,51.251c0.25-0.509,0.426-1.185,0.505-1.807c0.078-0.621,0.059-1.19-0.191-1.684c-0.25-0.495-0.73-0.916-1.322-1.269
	c-0.593-0.352-1.298-0.636-2.013-0.753c-0.716-0.118-1.44-0.069-2.243,0.138c-0.803,0.205-1.684,0.567-2.341,1.003
	c-0.656,0.436-1.087,0.945-1.425,1.655c-0.338,0.71-0.583,1.622-0.622,2.307c-0.04,0.685,0.127,1.146,0.407,1.646
	c0.278,0.499,0.671,1.038,1.268,1.361c0.598,0.323,1.401,0.43,2.248,0.406c0.848-0.025,1.738-0.182,2.552-0.506
	c0.813-0.325,1.547-0.817,2.076-1.233C97.885,52.099,98.208,51.758,98.458,51.251z"/>
</svg>
