<?xml version="1.0" encoding="utf-8"?>
<!-- Generator: Adobe Illustrator 16.0.3, SVG Export Plug-In . SVG Version: 6.00 Build 0)  -->
<!DOCTYPE svg PUBLIC "-//W3C//DTD SVG 1.1//EN" "http://www.w3.org/Graphics/SVG/1.1/DTD/svg11.dtd">
<svg version="1.1" class="detalhes_bone" image-rendering="optimizeQuality" text-rendering="geometricPrecision" shape-rendering="geometricPrecision" xmlns="http://www.w3.org/2000/svg" xmlns:xlink="http://www.w3.org/1999/xlink" x="0px" y="0px" width="450px" height="215px" viewBox="0 0 450 215" enable-background="new 0 0 450 215" xml:space="preserve">
	<defs>
		<path id="curva_frente_esq" fill="none" stroke="#000000" stroke-miterlimit="10" 
		d="M127.004,133.473C137.29,156.404,166.5,167,182.605,169.209"/>
		<path id="curva_verso_esq" fill="none" d="M391.983,188.373c36.351,0.076,47.684-2.207,57.191-6.835"/>
	</defs>
	<g class="nome_frente">
		<text text-anchor="end">
			<textPath class="previewNome" href="#curva_frente_esq" startOffset="100%"></textPath>
		</text>
	</g>
	<g class="nome_verso">
		<text text-anchor="start">
			<textPath class="previewNome" href="#curva_verso_esq" startOffset="0"></textPath>
		</text>
	</g>
	<path class="aba" d="M190.437,192.56c-5.621-2.107-14.69-5.781-21.543-8.669c-6.853-2.887-11.49-4.986-16.199-7.421
	c-4.71-2.435-9.492-5.206-13.545-8.369c-4.054-3.163-7.379-6.722-9.77-9.653c-2.391-2.93-3.849-5.234-4.581-6.625
	c-0.731-1.391-0.736-1.869-0.74-2.349c-0.008,0.009-0.021,0.017-1.193,0.08c-1.173,0.063-3.506,0.186-8.153,0.532
	c-4.648,0.346-11.611,0.917-16.52,1.3c-4.909,0.382-7.764,0.577-9.781,0.766c-2.018,0.188-3.195,0.37-5.067,0.461
	c-1.871,0.091-4.435,0.091-6.027,0.225c-1.591,0.134-2.211,0.401-3.281,0.554c-1.069,0.151-2.587,0.188-4.289,0.285
	s-3.584,0.256-4.933,0.413c-1.349,0.157-2.164,0.315-2.784,0.382c-0.619,0.067-1.044,0.043-2.558,0.116
	c-1.512,0.073-4.112,0.243-5.813,0.426s-2.504,0.376-3.208,0.449c-0.705,0.073-1.313,0.024-2.85,0.091
	c-1.537,0.066-4.003,0.25-5.583,0.432c-1.58,0.182-2.272,0.363-3.391,0.479c-1.117,0.116-2.66,0.165-4.294,0.28
	s-3.359,0.297-4.647,0.468c-0.672,0.088-1.225,0.173-1.734,0.249c-0.942,0.259-1.884,0.517-2.355,0.646
	c-0.471,0.129-0.471,0.129-0.785,0.241c-0.313,0.113-0.94,0.34-1.542,0.715c-0.601,0.376-1.177,0.901-1.625,1.444
	s-0.77,1.104-1.09,1.748c-0.32,0.646-0.642,1.375-0.853,2.41c-0.211,1.035-0.313,2.377,0.241,4.229s1.764,4.214,3.182,6.438
	c1.419,2.224,3.044,4.309,4.885,6.528s3.896,4.574,6.485,6.627c2.587,2.053,5.708,3.802,8.989,5.144
	c3.281,1.342,6.722,2.273,10.906,2.96c4.185,0.685,9.113,1.123,15.5,1.399c6.386,0.277,14.23,0.394,24.334,0.234
	c10.105-0.161,22.469-0.599,32.078-0.963c9.608-0.365,16.461-0.656,23.956-1.006c7.494-0.352,15.631-0.76,23.708-1.08
	c7.309-0.29,14.569-0.509,21.826-0.721C194.385,193.995,192.687,193.403,190.437,192.56z M19.945,168.895
	c-0.554-1.852-0.452-3.193-0.241-4.229c0.211-1.035,0.532-1.764,0.853-2.41c0.321-0.645,0.642-1.205,1.09-1.748
	s1.024-1.068,1.625-1.444c0.602-0.375,1.229-0.602,1.542-0.715c0.313-0.112,0.313-0.112,0.785-0.241
	c0.471-0.13,1.413-0.388,2.355-0.646c-0.466,0.07-0.896,0.133-1.347,0.182c-0.941,0.104-1.975,0.152-3.609,0.243
	c-1.634,0.092-3.869,0.225-6.403,0.583c-2.534,0.358-5.364,0.942-7.272,1.459c-1.908,0.516-2.892,0.966-3.755,1.494
	c-0.862,0.527-1.604,1.136-2.339,1.992c-0.735,0.857-1.464,1.963-1.95,3.129c-0.486,1.166-0.73,2.395-0.833,3.476
	c-0.018,0.188-0.032,0.373-0.042,0.553c0.028,0.698,0.073,1.425,0.169,2.231c0.146,1.227,0.408,2.642,1.444,4.689
	c1.034,2.049,2.842,4.731,5.234,7.414c2.391,2.684,5.366,5.366,8.865,8.166c3.499,2.799,7.523,5.716,13.005,7.99
	c5.483,2.273,12.423,3.907,18.781,5.117c6.357,1.211,12.13,1.998,21.594,2.64c9.463,0.642,22.614,1.138,36.567,1.385
	c13.955,0.249,28.71,0.249,41.6,0.189c12.889-0.058,23.912-0.175,34.746-0.714c10.833-0.54,21.477-1.502,31.669-2.537
	c9.291-0.943,18.205-1.948,27.088-2.957c-2.067-0.277-4.357-0.605-6.908-1.004c-6.62-1.035-14.989-2.552-20.924-3.871
	c-5.934-1.32-9.433-2.442-12.27-3.273c-0.453-0.133-0.89-0.259-1.327-0.385c-1.2-0.346-2.399-0.691-3.945-1.197
	c-7.257,0.212-14.517,0.431-21.826,0.721c-8.077,0.32-16.214,0.729-23.708,1.08c-7.495,0.35-14.348,0.641-23.956,1.006
	c-9.609,0.364-21.973,0.802-32.078,0.963c-10.104,0.159-17.948,0.043-24.334-0.234c-6.387-0.276-11.315-0.715-15.5-1.399
	c-4.184-0.687-7.625-1.618-10.906-2.96c-3.281-1.342-6.401-3.091-8.989-5.144c-2.589-2.053-4.645-4.407-6.485-6.627
	s-3.466-4.305-4.885-6.528C21.709,173.108,20.5,170.746,19.945,168.895z M107.002,214.999c4.442-0.006,10.741-0.048,16.365-0.1
	c5.623-0.052,10.567-0.113,16.017-0.233c5.45-0.122,11.403-0.305,16.725-0.463s10.012-0.291,14.149-0.419
	c4.138-0.127,7.722-0.249,11.628-0.358s8.134-0.207,14.161-0.596s13.852-1.068,20.152-1.652c6.299-0.582,11.076-1.068,14.848-1.385
	c3.773-0.316,6.543-0.461,9.563-0.832s6.288-0.967,9.122-1.418c2.833-0.453,5.233-0.764,6.642-0.932
	c1.408-0.169,1.824-0.195,2.637-0.104c0.494,0.057,1.137,0.157,2.016,0.29c-0.838-0.164-1.676-0.327-3.41-0.571
	c-1.734-0.246-4.367-0.574-8.117-1.016c-2.305-0.27-5.035-0.584-8.332-1.025c-8.883,1.009-17.797,2.014-27.088,2.957
	c-10.192,1.035-20.836,1.997-31.669,2.537c-10.833,0.539-21.856,0.656-34.746,0.714c-12.89,0.06-27.645,0.06-41.6-0.189
	c-13.954-0.247-27.104-0.743-36.567-1.385c-9.463-0.642-15.237-1.429-21.594-2.64c-6.357-1.21-13.298-2.844-18.781-5.117
	c-5.482-2.274-9.506-5.191-13.005-7.99c-3.499-2.8-6.474-5.482-8.865-8.166c-2.392-2.683-4.2-5.365-5.234-7.414
	c-1.036-2.048-1.298-3.463-1.444-4.689c-0.097-0.807-0.142-1.533-0.169-2.231c-0.05,0.853-0.024,1.615-0.019,2.332
	c0.006,0.87-0.018,1.671,0.164,2.886c0.183,1.216,0.571,2.844,1.246,4.454c0.674,1.609,1.634,3.202,2.794,4.938
	c1.161,1.738,2.521,3.621,4.18,5.462s3.615,3.64,5.304,5.128s3.111,2.667,4.994,3.991c1.883,1.325,4.228,2.795,6.513,4.04
	c2.284,1.246,4.507,2.266,6.677,3.117c2.168,0.85,4.283,1.53,6.695,2.217c2.412,0.688,5.122,1.379,8.153,1.975
	c3.031,0.596,6.384,1.094,9.453,1.47c3.068,0.378,5.85,0.632,8.438,0.87c2.588,0.236,4.981,0.455,9.12,0.661
	c4.137,0.207,10.018,0.401,14.188,0.538c4.171,0.136,6.631,0.216,9.153,0.27C99.979,214.975,102.562,215.006,107.002,214.999z"/>
	<path class="botao" d="M294.192,5.127c0,0,0,0,0.228-0.122c0.228-0.121,0.683-0.365,0.944-0.613c0.262-0.25,0.328-0.504,0.3-0.891
	c-0.026-0.385-0.148-0.902-0.74-1.408c-0.592-0.508-1.655-1.007-2.797-1.328c-1.143-0.322-2.364-0.468-3.855-0.562
	c-1.492-0.094-3.253-0.137-4.934-0.174c-1.68-0.036-3.277-0.067-4.832,0.08c-1.556,0.146-3.068,0.467-4.135,0.799
	c-1.066,0.331-1.686,0.67-2.074,1.084c-0.39,0.413-0.547,0.899-0.614,1.291c-0.067,0.392-0.043,0.689,0.14,0.966
	c0.182,0.276,0.522,0.531,0.793,0.731c0.271,0.201,0.471,0.347,0.571,0.419c1.307,0.029,2.612,0.059,4.601,0.073
	c0.867,0.007,1.864,0.011,2.938,0.011c1.385,0.001,2.895-0.002,4.414-0.01c2.698-0.015,5.425-0.044,7.16-0.125
	c1.013-0.047,1.688-0.111,2.184-0.191C294.192,5.127,294.192,5.127,294.192,5.127z"/>
	<path class="ilhoses" d="M188.597,33.601c0.936-0.416,2.051-1.021,2.938-1.589c0.885-0.569,1.542-1.101,1.873-1.465
	c0.333-0.364,0.34-0.561,0.234-0.824s-0.325-0.591-0.649-0.832c-0.325-0.241-0.755-0.394-1.316-0.408
	c-0.561-0.014-1.254,0.11-2.274,0.518c-1.021,0.408-2.37,1.101-3.227,1.727c-0.856,0.628-1.221,1.189-1.374,1.666
	c-0.154,0.478-0.095,0.872,0.025,1.21c0.121,0.34,0.303,0.624,0.532,0.759s0.507,0.12,1.024,0
	C186.902,34.242,187.66,34.016,188.597,33.601z M365.96,33.111c0.102-0.204,0.131-0.539,0.135-0.878
	c0.004-0.338-0.018-0.681-0.095-0.98c-0.077-0.299-0.208-0.554-0.455-0.849c-0.248-0.296-0.613-0.631-1.028-0.931
	c-0.415-0.298-0.883-0.561-1.531-0.903c-0.649-0.343-1.479-0.766-2.169-1.093c-0.688-0.329-1.235-0.562-1.677-0.708
	c-0.44-0.146-0.776-0.204-1.162-0.16c-0.387,0.043-0.824,0.19-1.119,0.459c-0.296,0.27-0.448,0.663-0.329,1.027
	c0.121,0.365,0.515,0.7,1.283,1.291c0.77,0.59,1.914,1.436,3.088,2.125c1.174,0.689,2.377,1.221,3.149,1.52
	c0.773,0.298,1.115,0.364,1.374,0.361C365.683,33.389,365.858,33.316,365.96,33.111z M278.739,35.886
	c0.539-0.12,1.026-0.287,1.501-0.521c0.474-0.233,0.933-0.532,1.268-0.89c0.336-0.357,0.548-0.772,0.599-1.155
	c0.051-0.383-0.058-0.733-0.204-1.028c-0.146-0.295-0.328-0.536-0.721-0.85c-0.395-0.313-1-0.7-1.641-0.9
	c-0.643-0.2-1.32-0.215-1.907-0.215s-1.082,0.015-1.735,0.179c-0.651,0.164-1.461,0.477-2.02,0.958
	c-0.557,0.481-0.863,1.13-0.944,1.735c-0.079,0.605,0.065,1.166,0.46,1.604c0.394,0.438,1.035,0.751,1.681,0.955
	c0.646,0.205,1.294,0.299,1.913,0.31C277.609,36.079,278.199,36.007,278.739,35.886z"/>
</svg>
