<?xml version="1.0" encoding="utf-8"?>
<!-- Generator: Adobe Illustrator 16.0.3, SVG Export Plug-In . SVG Version: 6.00 Build 0)  -->
<!DOCTYPE svg PUBLIC "-//W3C//DTD SVG 1.1//EN" "http://www.w3.org/Graphics/SVG/1.1/DTD/svg11.dtd">
<svg version="1.1" id="molde_bone_esquerda" image-rendering="optimizeQuality" text-rendering="geometricPrecision" shape-rendering="geometricPrecision" xmlns="http://www.w3.org/2000/svg" xmlns:xlink="http://www.w3.org/1999/xlink" x="0px" y="0px" width="450px" height="215px" viewBox="0 0 450 215" enable-background="new 0 0 450 215" xml:space="preserve">
	<path d="M305.802,6.865c2.898,0.571,6.361,1.349,9.532,2.102c3.172,0.754,6.051,1.483,9.161,2.31
	c3.111,0.825,6.452,1.749,11.228,3.158c4.775,1.41,10.983,3.306,15.729,4.879c4.745,1.574,8.025,2.824,11.106,4.094
	c3.08,1.27,5.959,2.558,8.062,3.597c2.103,1.038,3.427,1.829,5.115,2.873c1.689,1.045,3.743,2.345,5.917,3.749
	c2.176,1.403,4.472,2.91,6.659,4.538s4.265,3.377,6.293,5.188c2.03,1.81,4.011,3.682,6.07,5.753c2.06,2.071,4.198,4.344,6.349,7.059
	s4.313,5.875,6.549,9.508c2.236,3.633,4.544,7.74,6.95,12.734s4.909,10.875,6.72,15.225c1.811,4.35,2.929,7.169,4.082,10.146
	c1.154,2.977,2.346,6.112,4.022,10.838c1.676,4.728,3.84,11.046,5.959,17.448c2.12,6.404,4.198,12.892,5.354,17.008
	c1.153,4.116,1.385,5.859,1.634,8.699c0.249,2.841,0.517,6.777,0.747,12.087c0.23,5.311,0.425,11.993,0.516,17.321
	c0.092,5.328,0.08,9.301,0.034,11.434s-0.125,2.424-0.182,2.625c-0.058,0.2-0.095,0.309-0.191,0.455
	c-0.098,0.146-0.256,0.328-0.551,0.646c-0.294,0.32-0.726,0.775-1.622,1.258c-0.896,0.483-2.257,0.994-4.449,1.574
	c-2.193,0.58-5.22,1.23-8.342,1.813c-3.123,0.583-6.343,1.099-9.653,1.503c-3.312,0.404-6.714,0.696-11.707,1.031
	c-4.994,0.333-11.58,0.711-17.922,0.965c-6.343,0.256-12.442,0.39-17.728,0.514c-5.286,0.125-9.758,0.24-12.982,0.251
	c-3.224,0.011-5.201-0.083-6.33-0.218c-1.128-0.133-1.408-0.307-1.595-0.57s-0.28-0.619-0.327-0.797
	c-0.048-0.178-0.048-0.178-0.07-0.122s-0.068,0.169-0.175,0.386s-0.273,0.54-0.523,0.768c-0.252,0.228-0.585,0.361-1.572,0.444
	s-2.628,0.118-6.115,0.116s-8.821-0.039-13.311-0.057c-4.49-0.018-8.136-0.018-12.327-0.109c-4.192-0.092-8.931-0.273-13.153-0.474
	c-4.222-0.2-7.929-0.419-12.363-0.614c-4.435-0.194-9.599-0.364-14.01-0.687c-4.41-0.321-8.068-0.796-11.3-1.203
	c-3.231-0.406-6.039-0.747-8.047-1.022c-0.785-0.108-1.449-0.207-2.014-0.292c-0.879-0.133-1.521-0.233-2.016-0.29
	c-0.813-0.092-1.229-0.065-2.637,0.104c-1.408,0.168-3.809,0.479-6.642,0.932c-2.834,0.451-6.103,1.047-9.122,1.418
	s-5.789,0.516-9.563,0.832c-3.772,0.316-8.549,0.803-14.848,1.385c-6.3,0.584-14.125,1.264-20.152,1.652s-10.255,0.486-14.161,0.596
	s-7.491,0.231-11.628,0.358c-4.137,0.128-8.827,0.261-14.149,0.419s-11.275,0.341-16.725,0.463
	c-5.45,0.12-10.395,0.182-16.017,0.233c-5.624,0.052-11.923,0.094-16.365,0.1c-4.44,0.007-7.023-0.024-9.544-0.079
	c-2.521-0.054-4.981-0.134-9.153-0.27c-4.17-0.137-10.051-0.331-14.188-0.538c-4.138-0.206-6.531-0.425-9.12-0.661
	c-2.588-0.238-5.37-0.492-8.438-0.87c-3.069-0.376-6.422-0.874-9.453-1.47c-3.032-0.596-5.741-1.287-8.153-1.975
	c-2.412-0.687-4.526-1.367-6.695-2.217c-2.169-0.852-4.393-1.871-6.677-3.117c-2.285-1.245-4.63-2.715-6.513-4.04
	c-1.883-1.324-3.305-2.503-4.994-3.991s-3.646-3.287-5.304-5.128s-3.019-3.724-4.18-5.462c-1.16-1.736-2.121-3.329-2.794-4.938
	c-0.675-1.61-1.063-3.238-1.246-4.454c-0.182-1.215-0.158-2.016-0.164-2.886c-0.005-0.717-0.031-1.479,0.019-2.332
	c0.01-0.18,0.024-0.364,0.042-0.553c0.103-1.081,0.346-2.31,0.833-3.476c0.486-1.166,1.215-2.271,1.95-3.129
	c0.735-0.856,1.477-1.465,2.339-1.992c0.863-0.528,1.847-0.979,3.755-1.494c1.908-0.517,4.738-1.101,7.272-1.459
	c2.534-0.358,4.769-0.491,6.403-0.583c1.634-0.091,2.668-0.14,3.609-0.243c0.45-0.049,0.88-0.111,1.347-0.182
	c0.509-0.076,1.062-0.161,1.734-0.249c1.288-0.171,3.013-0.353,4.647-0.468s3.178-0.164,4.294-0.28
	c1.118-0.116,1.811-0.298,3.391-0.479c1.579-0.182,4.046-0.365,5.583-0.432c1.538-0.066,2.146-0.018,2.85-0.091
	c0.704-0.073,1.507-0.267,3.208-0.449s4.301-0.353,5.813-0.426c1.514-0.073,1.939-0.049,2.558-0.116
	c0.62-0.066,1.435-0.225,2.784-0.382c1.349-0.157,3.231-0.316,4.933-0.413s3.22-0.134,4.289-0.285
	c1.069-0.152,1.689-0.42,3.281-0.554c1.592-0.134,4.156-0.134,6.027-0.225c1.872-0.091,3.05-0.273,5.067-0.461
	c2.017-0.188,4.872-0.384,9.781-0.766c4.909-0.383,11.871-0.954,16.52-1.3c4.647-0.347,6.98-0.469,8.153-0.532
	c1.172-0.063,1.185-0.071,1.193-0.08c0.007-0.009,0.008-0.022,0.013-0.055c0.005-0.033,0.014-0.088,0.133-0.752
	c0.119-0.664,0.348-1.937,0.663-4.206s0.716-5.533,1.719-13.667c1.002-8.134,2.605-21.135,3.772-29.64
	c1.166-8.506,1.895-12.515,2.964-16.756c1.069-4.24,2.479-8.711,3.888-12.551c1.41-3.839,2.819-7.048,4.605-10.134
	c1.786-3.086,3.948-6.051,7.12-9.284c3.171-3.231,7.351-6.731,12.211-10.097c4.86-3.365,10.4-6.597,15.03-9.063
	c4.629-2.467,8.348-4.167,13.135-6.112c4.787-1.944,10.644-4.131,15.874-5.887c5.231-1.755,9.837-3.08,13.542-4.131
	c3.706-1.051,6.512-1.829,10.625-2.873c4.113-1.045,9.532-2.357,14.527-3.481c4.993-1.125,9.562-2.06,13.438-2.79
	c3.876-0.729,7.06-1.251,9.605-1.636c2.546-0.386,4.453-0.635,5.406-0.76c0.955-0.125,0.955-0.125,0.854-0.198
	s-0.301-0.219-0.571-0.419c-0.271-0.2-0.611-0.455-0.793-0.731c-0.183-0.277-0.207-0.574-0.14-0.966
	c0.067-0.392,0.225-0.878,0.614-1.291c0.389-0.414,1.008-0.753,2.074-1.084c1.066-0.332,2.579-0.653,4.135-0.799
	c1.555-0.147,3.152-0.116,4.832-0.08c1.681,0.037,3.441,0.08,4.934,0.174c1.491,0.094,2.713,0.24,3.855,0.562
	c1.142,0.321,2.205,0.82,2.797,1.328c0.592,0.506,0.714,1.023,0.74,1.408c0.028,0.387-0.038,0.641-0.3,0.891
	c-0.262,0.249-0.717,0.492-0.944,0.613c-0.228,0.122-0.228,0.122-0.228,0.122s0,0,0.29,0.032c0.094,0.01,0.219,0.023,0.384,0.041
	c0.675,0.073,2.023,0.219,3.864,0.474C300.571,5.929,302.903,6.294,305.802,6.865z"/>
</svg>