<?xml version="1.0" encoding="utf-8"?>
<!-- Generator: Adobe Illustrator 16.0.3, SVG Export Plug-In . SVG Version: 6.00 Build 0)  -->
<!DOCTYPE svg PUBLIC "-//W3C//DTD SVG 1.1//EN" "http://www.w3.org/Graphics/SVG/1.1/DTD/svg11.dtd">
<svg version="1.1" id="molde_bone_verso" image-rendering="optimizeQuality" text-rendering="geometricPrecision" shape-rendering="geometricPrecision" xmlns="http://www.w3.org/2000/svg" xmlns:xlink="http://www.w3.org/1999/xlink" x="0px" y="0px" width="310px" height="230px" viewBox="0 0 310 230" enable-background="new 0 0 310 230" xml:space="preserve">
	<path d="M266.894,34.52c-0.007,0.227-0.08,0.441-0.116,0.544c-0.021,0.063-0.031,0.085-0.033,0.091
	c0.01,0.006,0.086,0.061,0.568,0.42c0.571,0.424,1.715,1.272,3.216,2.673c1.502,1.399,3.362,3.35,5.534,5.794
	c2.17,2.445,4.652,5.383,6.823,8.583c2.171,3.199,4.032,6.661,6.546,13.075c2.514,6.415,5.68,15.785,7.551,21.948
	c1.868,6.163,2.439,9.117,2.938,11.86c0.498,2.742,0.922,5.271,1.55,10.65c0.629,5.379,1.462,13.607,2.393,22.471
	c0.93,8.863,1.958,18.363,2.525,25.03c0.568,6.667,0.674,10.499,0.729,12.415c0.02,0.678,0.033,1.117,0.052,1.416
	c0.036,0.545,0.093,0.63,0.249,0.867c0.24,0.367,0.718,1.102,1.105,1.864c0.388,0.764,0.686,1.556,0.894,2.648
	c0.208,1.095,0.327,2.489,0.318,3.987s-0.144,3.098-0.527,4.617c-0.385,1.52-1.02,2.957-1.334,3.676
	c-0.313,0.721-0.308,0.721-0.292,0.917s0.039,0.591,0.044,0.804c0.004,0.213-0.013,0.246-0.034,0.307
	c-0.021,0.06-0.048,0.147-0.054,0.219c-0.007,0.071,0.009,0.127,0.021,0.178c0.012,0.054,0.022,0.103,0.024,0.166
	c0.002,0.063-0.004,0.141-0.007,0.285c-0.002,0.145,0,0.357-0.02,0.563c-0.021,0.207-0.063,0.406-0.118,0.543
	c-0.054,0.137-0.119,0.21-0.151,0.271c-0.033,0.061-0.033,0.11-0.029,0.184s0.013,0.171,0.015,0.259
	c0.003,0.088-0.002,0.166-0.019,0.278c-0.016,0.112-0.045,0.259-0.088,0.384s-0.1,0.227-0.154,0.318s-0.108,0.173-0.148,0.243
	c-0.026,0.043-0.048,0.082-0.061,0.116c-0.008,0.021-0.014,0.039-0.016,0.058c-0.005,0.034,0.004,0.064,0.008,0.385
	c0.001,0.098,0.002,0.224,0.002,0.385c0,0.688-0.016,2.027-0.092,3.148c-0.075,1.123-0.21,2.029-0.364,2.729
	c-0.156,0.7-0.332,1.194-0.441,1.859s-0.154,1.502-0.137,2.387c0.019,0.886,0.1,1.82,0.066,2.393
	c-0.033,0.57-0.183,0.779-0.294,0.929s-0.185,0.241-0.27,0.331c-0.086,0.088-0.184,0.174-0.327,0.251
	c-0.144,0.076-0.331,0.144-0.484,0.174c-0.154,0.03-0.274,0.024-0.343,0.039s-0.085,0.049-0.113,0.101
	c-0.028,0.053-0.069,0.122-0.15,0.208c-0.08,0.085-0.201,0.188-0.539,0.367c-0.337,0.18-0.893,0.437-1.22,0.598
	s-0.427,0.228-0.524,0.28c-0.097,0.055-0.19,0.098-0.286,0.135c-0.095,0.035-0.19,0.066-0.263,0.075s-0.122-0.003-0.274,0.037
	s-0.41,0.132-1.337,0.453c-0.926,0.321-2.521,0.872-4.167,1.433c-1.645,0.561-3.339,1.131-5.438,1.834
	c-2.099,0.703-4.603,1.538-7.014,2.313c-2.411,0.771-4.729,1.482-7.03,2.164c-2.302,0.681-4.587,1.334-6.811,1.922
	c-2.225,0.588-4.389,1.109-7.176,1.746s-6.197,1.389-9.379,2.047c-3.18,0.658-6.128,1.227-7.637,1.528
	c-1.51,0.302-1.579,0.339-1.678,0.39c-0.1,0.052-0.228,0.117-0.328,0.148c-0.102,0.031-0.176,0.029-0.279,0.016
	c-0.104-0.015-0.238-0.041-0.375-0.053c-0.137-0.011-0.275-0.007-0.963,0.096c-0.686,0.102-1.92,0.301-2.563,0.414
	c-0.295,0.053-0.465,0.086-0.565,0.111c-0.119,0.029-0.144,0.046-0.164,0.066c-0.04,0.035-0.071,0.082-0.13,0.129
	c-0.062,0.045-0.151,0.09-0.25,0.111c-0.1,0.02-0.207,0.016-0.283-0.004c-0.074-0.021-0.117-0.059-0.146-0.091
	c-0.029-0.034-0.043-0.065-0.158-0.071c-0.113-0.006-0.328,0.014-0.74,0.068c-0.413,0.055-1.025,0.146-1.551,0.146
	s-0.965-0.095-1.229-0.217c-0.266-0.12-0.357-0.271-0.409-0.509s-0.064-0.567-0.068-0.734c-0.002-0.062-0.002-0.102-0.002-0.127
	c0-0.041,0.004-0.045,0.006-0.047c0,0,0.002,0-0.006,0c-0.023-0.002-0.133,0.002-0.596,0.021c-0.609,0.024-1.83,0.076-2.861,0.131
	s-1.873,0.114-3.23,0.167c-1.356,0.052-3.229,0.097-5.07,0.166c-1.84,0.071-3.647,0.167-5.748,0.225
	c-2.1,0.059-4.49,0.079-5.686,0.09c-1.194,0.01-1.192,0.01-1.422,0.086c-0.229,0.075-0.691,0.227-1.545,0.428
	c-0.855,0.203-2.104,0.455-4.529,0.639c-2.424,0.184-6.021,0.299-12.977,0.42c-6.953,0.123-17.262,0.253-26.612,0.286
	c-9.349,0.032-17.739-0.032-24.244-0.106c-6.505-0.073-11.125-0.154-19.553-0.498c-8.426-0.342-20.662-0.946-27.946-1.315
	c-7.285-0.369-9.619-0.504-10.787-0.571c-0.979-0.057-1.137-0.065-1.162-0.011c-0.005,0.011-0.005,0.024-0.005,0.039
	c0,0.096,0,0.288-0.047,0.533c-0.047,0.244-0.141,0.543-0.333,0.738c-0.192,0.196-0.481,0.29-1.123,0.294
	c-0.642,0.004-1.635-0.082-2.167-0.107c-0.531-0.025-0.601,0.01-0.654,0.043c-0.053,0.034-0.09,0.066-0.21,0.014
	c-0.12-0.051-0.325-0.188-0.48-0.259c-0.031-0.015-0.06-0.026-0.093-0.037c-0.132-0.041-0.318-0.063-0.909-0.148
	c-0.737-0.108-2.104-0.319-2.794-0.411c-0.69-0.094-0.702-0.069-0.788-0.051s-0.245,0.03-0.367-0.017
	c-0.123-0.047-0.208-0.153-0.313-0.208c-0.104-0.056-0.227-0.06-1.232-0.225c-1.006-0.165-2.896-0.492-5.604-1.018
	c-2.708-0.526-6.233-1.253-9.405-1.984c-3.171-0.729-5.987-1.464-9.325-2.346c-3.338-0.881-7.199-1.91-10.756-2.959
	c-3.559-1.049-6.815-2.118-9.881-3.109c-3.063-0.991-5.937-1.906-7.973-2.57c-2.037-0.666-3.237-1.082-4.257-1.474
	c-1.02-0.393-1.861-0.76-2.338-1.058c-0.479-0.299-0.592-0.525-0.649-0.641c-0.058-0.113-0.058-0.113-0.237-0.102
	c-0.18,0.012-0.539,0.037-0.779-0.033c-0.242-0.068-0.364-0.232-0.469-0.461c-0.107-0.229-0.197-0.522-0.258-1.379
	c-0.061-0.857-0.094-2.277-0.261-3.768c-0.167-1.489-0.469-3.048-0.784-5.15c-0.296-1.982-0.603-4.447-0.802-5.965
	c-0.012-0.09-0.023-0.178-0.034-0.262c-0.196-1.482-0.261-1.801-0.38-2.162c-0.118-0.364-0.29-0.772-0.628-1.507
	c-0.338-0.735-0.845-1.796-1.293-3.56c-0.449-1.763-0.841-4.228-0.963-5.957c-0.123-1.73,0.025-2.727,0.283-3.751
	c0.26-1.024,0.631-2.077,1.143-3.01c0.512-0.933,1.165-1.744,1.492-2.15c0.326-0.406,0.326-0.406,0.333-0.496
	c0.005-0.065,0.012-0.178,0.031-0.567c0-0.002,0-0.002,0-0.002c0.007-0.146,0.016-0.332,0.026-0.568
	c0.039-0.87,0.105-2.43,0.235-5.697c0.131-3.27,0.326-8.248,0.543-11.354s0.453-4.338,0.93-8.901
	c0.479-4.562,1.196-12.454,1.694-17.755c0.497-5.301,0.774-8.012,1.33-12.003s1.388-9.264,2.164-13.402
	c0.775-4.138,1.493-7.142,2.293-10.227c0.8-3.086,1.682-6.252,2.967-10.275c1.286-4.024,2.975-8.906,3.999-11.75
	c1.025-2.844,1.384-3.653,2.099-5.109c0.714-1.457,1.783-3.563,2.82-5.497c1.036-1.935,2.04-3.697,2.913-5.093
	c0.874-1.396,1.616-2.424,2.375-3.424c0.76-1,1.536-1.971,2.552-3.098c1.015-1.126,2.272-2.408,3.362-3.567
	c1.089-1.158,2.011-2.195,3.277-3.389c1.265-1.193,2.873-2.544,3.671-3.216c0.797-0.671,0.786-0.663,0.765-0.706
	c-0.02-0.043-0.049-0.137-0.061-0.352c-0.012-0.213-0.008-0.548,0.1-0.801c0.108-0.251,0.321-0.421,0.521-0.595
	c0.2-0.174,0.388-0.351,0.631-0.525c0.242-0.174,0.541-0.346,0.734-0.455c0.194-0.109,0.284-0.156,0.373-0.189
	c0.089-0.034,0.177-0.054,0.243-0.083c0.066-0.028,0.111-0.065,0.174-0.145c0.062-0.08,0.142-0.202,0.26-0.277
	c0.12-0.074,0.279-0.101,0.398-0.148c0.12-0.048,0.199-0.118,0.401-0.292c0.202-0.176,0.526-0.458,0.811-0.654
	c0.285-0.195,0.529-0.305,0.744-0.393c0.215-0.088,0.398-0.153,0.594-0.182c0.195-0.028,0.404-0.02,0.563,0.027
	c0.16,0.047,0.27,0.132,0.342,0.184c0.074,0.051,0.111,0.067,0.176,0.051c0.066-0.017,0.16-0.065,0.7-0.414
	c0.541-0.35,1.528-0.998,3.152-1.878c1.625-0.879,3.886-1.989,6.383-3.127c2.497-1.139,5.231-2.306,7.416-3.256
	c2.182-0.952,3.815-1.686,5.888-2.502c2.073-0.816,4.587-1.714,7.338-2.587c2.75-0.874,5.737-1.722,8.725-2.473
	c2.987-0.752,5.975-1.404,9.357-2.167c3.383-0.763,7.163-1.636,9.782-2.224c2.621-0.588,4.081-0.89,6.122-1.257
	s4.66-0.801,7.22-1.323c2.559-0.522,5.056-1.134,7.643-1.607c2.588-0.473,5.265-0.809,7.779-1.163
	c2.514-0.355,4.865-0.73,6.485-0.984c1.62-0.253,2.51-0.383,3.013-0.457c0.502-0.073,0.618-0.089,0.676-0.097
	c0.04-0.005,0.053-0.006,0.056-0.038c0.001-0.015,0.001-0.035,0.001-0.065c-0.002-0.097-0.005-0.292,0.043-0.591
	c0.047-0.299,0.145-0.704,0.406-1.012c0.261-0.308,0.685-0.52,1.349-0.704c0.663-0.184,1.564-0.338,2.777-0.41
	c1.212-0.071,2.734-0.059,4.044-0.016c1.31,0.043,2.408,0.116,3.24,0.249c0.832,0.132,1.399,0.324,1.775,0.531
	c0.375,0.206,0.559,0.426,0.678,0.784c0.117,0.356,0.17,0.851,0.199,1.099c0.029,0.25,0.033,0.254,0.135,0.285
	c0.102,0.03,0.302,0.087,0.512,0.116s0.431,0.029,0.586,0.065c0.155,0.037,0.245,0.111,0.388,0.148
	c0.144,0.036,0.339,0.036,1.212,0.118c0.873,0.082,2.424,0.245,5.113,0.67c2.689,0.424,6.518,1.11,10.13,1.738s7.007,1.2,10.169,1.8
	c3.163,0.6,6.094,1.228,8.37,1.705c2.277,0.479,3.901,0.805,7.126,1.552c3.223,0.747,8.047,1.914,13.047,3.277
	c4.999,1.362,10.174,2.922,12.858,3.758c2.686,0.836,2.882,0.951,3.041,1.065c0.159,0.114,0.282,0.228,0.396,0.313
	c0.115,0.085,0.221,0.143,0.389,0.184c0.166,0.041,0.395,0.066,0.962,0.253s1.474,0.538,2.922,1.085c1.45,0.547,3.44,1.29,5.575,2.2
	c2.134,0.91,4.412,1.987,6.068,2.819s2.693,1.421,3.947,2.134c1.256,0.715,2.729,1.556,3.467,1.976
	c0.509,0.291,0.668,0.379,0.744,0.38c0.033,0,0.051-0.018,0.076-0.044c0.081-0.083,0.24-0.25,0.424-0.319s0.395-0.04,0.518-0.018
	c0.125,0.021,0.164,0.035,0.322,0.124c0.159,0.091,0.436,0.256,0.727,0.417c0.29,0.16,0.596,0.313,0.756,0.421
	c0.161,0.108,0.177,0.169,0.191,0.243c0.015,0.073,0.026,0.159,0.062,0.218c0.034,0.06,0.092,0.093,0.179,0.126
	c0.089,0.035,0.207,0.072,0.289,0.094c0.081,0.023,0.125,0.031,0.152,0.035s0.035,0.004,0.065,0.01
	c0.03,0.006,0.083,0.019,0.126,0.037s0.076,0.043,0.115,0.074c0.039,0.03,0.082,0.066,0.121,0.132
	c0.039,0.065,0.072,0.159,0.104,0.206c0.029,0.047,0.059,0.047,0.125,0.063c0.068,0.017,0.174,0.049,0.453,0.206
	c0.277,0.156,0.729,0.435,1.086,0.698c0.357,0.261,0.621,0.507,0.781,0.749C266.842,34.053,266.9,34.292,266.894,34.52z"/>
</svg>