<?xml version="1.0" encoding="utf-8"?>
<!-- Generator: Adobe Illustrator 16.0.3, SVG Export Plug-In . SVG Version: 6.00 Build 0)  -->
<!DOCTYPE svg PUBLIC "-//W3C//DTD SVG 1.1//EN" "http://www.w3.org/Graphics/SVG/1.1/DTD/svg11.dtd">
<svg version="1.1" class="detalhes_bone" image-rendering="optimizeQuality" text-rendering="geometricPrecision" shape-rendering="geometricPrecision" xmlns="http://www.w3.org/2000/svg" xmlns:xlink="http://www.w3.org/1999/xlink" x="0px" y="0px" width="310px" height="280px" viewBox="0 0 310 280" enable-background="new 0 0 310 280" xml:space="preserve">
	<mask id="mask">
		<path fill="#fff" d="M303.373,151.634c0.352,4.253,0.826,9.175,1.184,13.197c0.358,4.021,0.602,7.142,0.688,10.709
		c0.086,3.567,0.017,7.583-0.003,10.062c-0.021,2.479,0.008,3.42,0.089,4.713c0.081,1.291,0.214,2.932,0.269,3.923
		c0.056,0.991,0.032,1.331-0.063,2.105c-0.095,0.774-0.262,1.982-0.416,3.36c-0.153,1.378-0.292,2.926-0.424,4.044
		c-0.133,1.118-0.261,1.806-0.442,2.313c-0.182,0.51-0.419,0.838-0.67,1.088c-0.252,0.248-0.518,0.414-0.65,0.498
		c-0.035,0.023-0.063,0.041-0.082,0.054c-0.051,0.034-0.051,0.043-0.051,0.073c0,0.045,0,0.131,0.208,1.27s0.624,3.328,1.051,5.416
		c0.429,2.089,0.867,4.077,1.561,8.941c0.694,4.865,1.641,12.606,2.363,19.373c0.722,6.766,1.219,12.555,1.543,16.582
		c0.322,4.026,0.474,6.293,0.474,8.133s-0.15,3.255-0.393,4.287c-0.107,0.455-0.233,0.837-0.371,1.17
		c-0.176,0.42-0.369,0.764-0.574,1.086c-0.366,0.578-0.765,1.086-0.982,1.436c-0.216,0.35-0.251,0.54-0.397,0.963
		c-0.148,0.422-0.408,1.073-0.767,1.592c-0.357,0.517-0.814,0.897-1.201,1.164c-0.388,0.266-0.705,0.416-1.182,0.522
		s-1.111,0.17-1.791,0.156c-0.679-0.015-1.401-0.107-2.238-0.286c-0.839-0.18-1.791-0.445-2.84-0.783
		c-1.05-0.338-2.193-0.748-4.129-1.566c-1.936-0.816-4.662-2.041-7.783-3.359c-3.119-1.316-6.633-2.727-10.504-4.223
		c-3.871-1.498-8.1-3.08-12.404-4.623s-8.685-3.045-13.145-4.432c-4.461-1.387-9.002-2.658-13.768-3.877
		c-4.768-1.219-9.76-2.386-14.393-3.415c-4.635-1.028-8.91-1.918-13.556-2.721c-4.646-0.804-9.66-1.519-14.375-2.103
		c-4.714-0.584-9.129-1.035-13.946-1.451c-4.82-0.416-10.043-0.797-14.318-0.965c-4.275-0.166-7.604-0.121-10.989-0.063
		c-3.385,0.057-6.829,0.127-10.787,0.335s-8.43,0.554-12.462,0.924c-4.033,0.37-7.627,0.763-11.134,1.185
		c-3.507,0.422-6.928,0.873-10.984,1.461c-4.056,0.59-8.747,1.318-12.37,2.029c-3.623,0.711-6.176,1.403-9.169,2.149
		c-2.993,0.745-6.425,1.542-10.545,2.577c-4.119,1.033-8.926,2.305-13.554,3.697c-4.628,1.393-9.077,2.906-12.89,4.275
		c-3.814,1.369-6.991,2.594-10.343,3.895c-3.351,1.3-6.875,2.675-10.891,4.287c-4.015,1.611-8.522,3.461-11.278,4.547
		c-2.756,1.086-3.761,1.41-4.859,1.716s-2.288,0.595-3.218,0.722c-0.93,0.128-1.601,0.094-2.34-0.052
		c-0.74-0.144-1.549-0.397-2.23-1.019c-0.682-0.623-1.237-1.609-1.604-2.28c-0.367-0.671-0.546-1.022-0.953-1.681
		c-0.408-0.66-1.043-1.623-1.488-2.846c-0.07-0.193-0.135-0.393-0.196-0.6c-0.325-1.113-0.52-2.487-0.607-4.551
		c-0.104-2.451-0.058-5.871,0.196-11.349c0.255-5.478,0.717-13.012,1.266-19.644c0.548-6.633,1.184-12.365,1.724-16.945
		c0.541-4.58,0.985-8.009,1.208-9.725c0.212-1.633,0.222-1.709,0.195-1.729c-0.002-0.001-0.003-0.002-0.004-0.003
		c-0.032-0.017-0.096-0.052-0.357-0.188c-0.262-0.135-0.721-0.371-1.047-0.937c-0.327-0.565-0.521-1.457-0.727-3.377
		c-0.207-1.92-0.426-4.866-0.537-6.384c-0.112-1.52-0.115-1.608-0.217-2.594c-0.103-0.984-0.305-2.865-0.568-5.481
		c-0.263-2.616-0.586-5.967-0.748-9.665c-0.162-3.697-0.162-7.742,0.162-11.15c0.323-3.408,0.97-6.183,1.479-8.852
		c0.508-2.67,0.878-5.234,1.155-8.551c0.278-3.317,0.463-7.385,0.596-10.863c0.133-3.478,0.213-6.367,0.473-9.354
		c0.26-2.987,0.699-6.072,1.428-9.29c0.727-3.219,1.744-6.57,2.969-10.244c1.225-3.675,2.658-7.673,3.998-10.909
		c1.341-3.236,2.589-5.708,4.048-8.187s3.128-4.963,4.128-6.532c1-1.568,1.329-2.221,1.852-3.568
		c0.523-1.346,1.239-3.385,2.695-6.531s3.652-7.399,6.055-11.466c2.404-4.068,5.015-7.95,7.419-11.024
		c2.403-3.074,4.599-5.339,6.783-7.517c2.184-2.178,4.356-4.27,6.142-5.882c1.785-1.612,3.183-2.744,5.581-4.501
		c2.398-1.756,5.795-4.137,8.395-5.829c2.6-1.693,4.403-2.699,7.17-4.074s6.5-3.12,10.03-4.628c3.53-1.508,6.859-2.779,11.307-4.148
		c4.449-1.37,10.019-2.837,13.861-3.819c3.842-0.982,5.957-1.479,8.488-1.996c2.53-0.517,5.477-1.055,9.123-1.676
		c3.645-0.621,7.99-1.326,10.475-1.71c2.484-0.384,3.108-0.448,3.444-0.483c0.335-0.035,0.38-0.041,0.403-0.043
		c0.018-0.003,0.023-0.003,0.03-0.098c0.002-0.027,0.005-0.063,0.008-0.109c0.015-0.204,0.044-0.611,0.117-1.108
		c0.074-0.497,0.192-1.083,0.575-1.613c0.383-0.531,1.03-1.004,2.07-1.415c1.04-0.41,2.473-0.756,4.247-1.016
		c1.773-0.261,3.888-0.434,6.471-0.44c2.583-0.005,5.633,0.156,7.938,0.497c2.307,0.341,3.865,0.861,4.79,1.534
		c0.925,0.673,1.214,1.5,1.358,2.15c0.144,0.65,0.144,1.123,0.144,1.36s0,0.237,1.884,0.509c1.883,0.271,5.651,0.814,11.486,1.976
		c5.836,1.161,13.74,2.941,18.934,4.16c5.194,1.219,7.68,1.878,11.07,2.877c3.393,1,7.69,2.34,11.983,3.848
		c4.293,1.508,8.579,3.184,12.018,4.732c3.438,1.548,6.026,2.97,8.177,4.293c2.148,1.323,3.858,2.548,5.795,3.987
		c1.935,1.438,4.096,3.091,6.332,4.951c2.235,1.861,4.547,3.929,6.396,5.778s3.235,3.478,4.937,5.789
		c1.703,2.311,3.719,5.304,5.408,7.979c1.69,2.675,3.055,5.033,4.764,8.569c1.711,3.536,3.768,8.25,5.033,11.295
		s1.738,4.42,2.715,6.772c0.977,2.351,2.455,5.679,3.56,8.089c1.104,2.409,1.832,3.899,2.45,5.506
		c0.617,1.606,1.127,3.328,1.652,5.281c0.525,1.952,1.068,4.136,1.99,6.728c0.922,2.591,2.221,5.59,3.059,7.623
		c0.839,2.034,1.214,3.103,1.682,4.704c0.468,1.6,1.029,3.732,1.61,7.005c0.58,3.273,1.181,7.687,1.597,11.686
		C302.789,143.8,303.02,147.382,303.373,151.634z"/>
	</mask>
		
	<path class="aba" d="M40.602,251.502c5.852-2.219,14.006-5.048,20.804-7.148c6.798-2.101,12.241-3.474,19.413-5.02
	c7.173-1.546,16.075-3.266,24.936-4.667c8.86-1.399,17.68-2.481,27.858-3.258c10.178-0.777,21.715-1.248,31.657-1.026
	c9.942,0.223,18.291,1.137,26.277,2.149c7.988,1.012,15.614,2.122,23.837,3.675c8.224,1.553,17.042,3.55,24.462,5.449
	c7.418,1.9,13.436,3.703,20.799,6.31c7.363,2.607,16.071,6.019,21.396,8.181c5.325,2.164,7.267,3.078,9.208,3.48
	c1.941,0.403,3.883,0.292,5.283-0.318s2.261-1.72,2.801-4.201c0.541-2.482,0.763-6.338,0.624-11.08
	c-0.138-4.742-0.638-10.372-0.963-16.66c-0.304-5.85-0.457-12.268-0.6-18.727c-0.088-0.019-0.237-0.065-0.536-0.162
	c-0.584-0.188-1.733-0.563-3.1-0.951c-1.367-0.387-2.949-0.784-5.931-1.371c-2.981-0.586-7.361-1.361-13.041-2.58
	c-5.679-1.219-12.659-2.883-19.788-4.547c-7.13-1.664-14.41-3.328-21.193-4.762c-6.783-1.432-13.068-2.634-20.314-3.813
	c-7.245-1.18-15.449-2.334-21.897-2.912s-11.14-0.578-16.743-0.659c-5.605-0.081-12.123-0.241-18.998-0.346
	c-6.875-0.104-14.109-0.149-20.604,0.069c-6.494,0.22-12.249,0.705-18.986,1.34c-6.736,0.636-14.456,1.422-21.297,2.427
	c-6.84,1.006-12.803,2.231-18.419,3.386c-5.616,1.156-10.885,2.242-16.634,3.473s-11.977,2.605-16.01,3.537
	c-4.033,0.93-5.871,1.414-7.777,1.848c-1.907,0.434-3.883,0.814-6.026,1.23c-2.144,0.416-4.455,0.867-6.732,1.307
	c-2.276,0.438-4.518,0.867-6.554,1.346c-2.037,0.48-3.869,1.012-4.784,1.277c-0.916,0.266-0.916,0.266-1.194,0.363
	c-0.277,0.099-0.831,0.295-1.253,0.407c-0.238,0.064-0.433,0.101-0.598,0.116c-0.017,0.508-0.028,1.199,0.004,3.234
	c0.038,2.357,0.136,6.518,0.142,9.957c0.008,3.438-0.076,6.156-0.104,9.629c-0.027,3.475,0,7.703,0.042,11.268
	s0.097,6.462,0.326,8.813s0.631,4.152,1.331,5.429c0.7,1.276,1.699,2.024,2.642,2.405c0.943,0.382,1.83,0.396,4.035-0.075
	c2.205-0.472,5.727-1.429,9.263-2.711C31.201,255.329,34.751,253.721,40.602,251.502z M25.856,267.464
	c8.278-3.252,19.774-7.467,30.389-10.892c10.615-3.426,20.349-6.061,28.392-8.057s14.393-3.356,21.285-4.494
	c6.892-1.137,14.324-2.051,23.157-2.73s19.067-1.123,29.022-1.109c9.957,0.014,19.635,0.485,28.303,1.344
	c8.666,0.861,16.32,2.108,25.084,3.744c8.764,1.638,18.637,3.662,28.537,6.338c9.901,2.677,19.83,6.005,28.51,9.332
	c8.681,3.328,16.113,6.656,21.271,8.916c5.158,2.261,8.043,3.453,10.422,4.182c2.378,0.729,4.25,0.99,5.512,1.001
	c1.263,0.009,1.916-0.235,2.396-0.626c0.481-0.391,0.79-0.93,1.1-1.467c0.138-0.333,0.264-0.715,0.371-1.17
	c0.242-1.032,0.393-2.447,0.393-4.287s-0.151-4.106-0.474-8.133c-0.324-4.027-0.821-9.816-1.543-16.582
	c-0.723-6.767-1.669-14.508-2.363-19.373c-0.693-4.864-1.132-6.853-1.561-8.941c-0.427-2.088-0.843-4.277-1.051-5.416
	s-0.208-1.225-0.208-1.27c0-0.03,0-0.039,0.051-0.073c-0.292,0.188-0.583,0.379-0.937,0.571c-0.354,0.192-0.771,0.39-1.128,0.533
	c-0.358,0.146-0.659,0.237-0.856,0.243c-0.195,0.007-0.289-0.075-0.4-0.159c-0.113-0.084-0.246-0.17-0.345-0.233
	c-0.057-0.037-0.102-0.066-0.152-0.083c-0.036-0.012-0.074-0.018-0.121-0.016c-0.113,0.006-0.275,0.059-0.364,0.084
	c-0.044,0.012-0.071,0.02-0.154,0c0.143,6.459,0.296,12.877,0.6,18.727c0.325,6.288,0.825,11.918,0.963,16.66
	c0.139,4.742-0.083,8.598-0.624,11.08c-0.54,2.481-1.4,3.591-2.801,4.201s-3.342,0.722-5.283,0.318
	c-1.941-0.402-3.883-1.316-9.208-3.48c-5.324-2.162-14.032-5.573-21.396-8.181c-7.363-2.606-13.381-4.409-20.799-6.31
	c-7.42-1.899-16.238-3.896-24.462-5.449c-8.223-1.553-15.849-2.663-23.837-3.675c-7.986-1.013-16.335-1.927-26.277-2.149
	c-9.941-0.222-21.479,0.249-31.657,1.026c-10.178,0.776-18.998,1.858-27.858,3.258c-8.861,1.401-17.763,3.121-24.936,4.667
	c-7.172,1.546-12.615,2.919-19.413,5.02c-6.798,2.101-14.952,4.93-20.804,7.148c-5.851,2.219-9.401,3.827-12.937,5.11
	c-3.536,1.282-7.058,2.239-9.263,2.711c-2.205,0.471-3.092,0.457-4.035,0.075c-0.943-0.381-1.942-1.129-2.642-2.405
	c-0.7-1.276-1.102-3.078-1.331-5.429s-0.284-5.248-0.326-8.813s-0.069-7.793-0.042-11.268c0.028-3.473,0.112-6.19,0.104-9.629
	c-0.006-3.439-0.104-7.6-0.142-9.957c-0.032-2.035-0.021-2.727-0.004-3.234c-0.129,0.011-0.24,0.01-0.338-0.003
	c-0.226-0.029-0.387-0.116-0.471-0.156c-0.034-0.016-0.055-0.024-0.072-0.026c-0.026,0-0.044,0.016-0.084,0.053
	c-0.067,0.061-0.194,0.176-0.356,0.283c-0.161,0.106-0.358,0.205-0.837,0.08c-0.48-0.123-1.243-0.471-1.821-0.761
	c-0.577-0.288-0.971-0.521-1.364-0.755c0.027,0.02,0.017,0.096-0.195,1.729c-0.223,1.716-0.667,5.145-1.208,9.725
	c-0.54,4.58-1.176,10.313-1.724,16.945c-0.549,6.632-1.011,14.166-1.266,19.644c-0.254,5.478-0.3,8.897-0.196,11.349
	c0.087,2.063,0.282,3.438,0.607,4.551c0.712,1.115,1.424,2.232,2.557,2.894c1.133,0.662,2.686,0.87,5.993-0.17
	S17.578,270.716,25.856,267.464z M108.587,249.902c4.056-0.588,7.477-1.039,10.984-1.461c3.507-0.422,7.101-0.814,11.134-1.185
	c4.032-0.37,8.504-0.716,12.462-0.924s7.402-0.278,10.787-0.335c3.386-0.059,6.714-0.104,10.989,0.063
	c4.275,0.168,9.498,0.549,14.318,0.965c4.817,0.416,9.232,0.867,13.946,1.451c4.715,0.584,9.729,1.299,14.375,2.103
	c4.646,0.803,8.921,1.692,13.556,2.721c4.633,1.029,9.625,2.196,14.393,3.415c4.766,1.219,9.307,2.49,13.768,3.877
	c4.46,1.387,8.84,2.889,13.145,4.432s8.533,3.125,12.404,4.623c3.871,1.496,7.385,2.906,10.504,4.223
	c3.121,1.318,5.848,2.543,7.783,3.359c1.936,0.818,3.079,1.229,4.129,1.566c1.049,0.338,2.001,0.604,2.84,0.783
	c0.837,0.179,1.56,0.271,2.238,0.286c0.68,0.014,1.314-0.05,1.791-0.156s0.794-0.257,1.182-0.522
	c0.387-0.267,0.844-0.647,1.201-1.164c0.358-0.519,0.618-1.17,0.767-1.592c0.146-0.423,0.182-0.613,0.397-0.963
	c0.218-0.35,0.616-0.857,0.982-1.436c0.205-0.322,0.398-0.666,0.574-1.086c-0.31,0.537-0.618,1.076-1.1,1.467
	c-0.48,0.391-1.134,0.635-2.396,0.626c-1.262-0.011-3.134-0.272-5.512-1.001c-2.379-0.729-5.264-1.921-10.422-4.182
	c-5.158-2.26-12.591-5.588-21.271-8.916c-8.68-3.327-18.608-6.655-28.51-9.332c-9.9-2.676-19.773-4.7-28.537-6.338
	c-8.764-1.636-16.418-2.883-25.084-3.744c-8.668-0.858-18.346-1.33-28.303-1.344c-9.956-0.014-20.189,0.43-29.022,1.109
	s-16.265,1.594-23.157,2.73c-6.892,1.138-13.242,2.498-21.285,4.494s-17.777,4.631-28.392,8.057
	c-10.615,3.425-22.111,7.64-30.389,10.892s-13.34,5.54-16.647,6.58s-4.86,0.832-5.993,0.17c-1.133-0.661-1.845-1.778-2.557-2.894
	c0.061,0.207,0.126,0.406,0.196,0.6c0.445,1.223,1.08,2.186,1.488,2.846c0.407,0.658,0.586,1.01,0.953,1.681
	c0.367,0.671,0.922,1.657,1.604,2.28c0.681,0.621,1.49,0.875,2.23,1.019c0.739,0.146,1.41,0.18,2.34,0.052
	c0.93-0.127,2.12-0.416,3.218-0.722s2.103-0.63,4.859-1.716c2.756-1.086,7.263-2.936,11.278-4.547
	c4.016-1.612,7.54-2.987,10.891-4.287c3.352-1.301,6.529-2.525,10.343-3.895c3.813-1.369,8.262-2.883,12.89-4.275
	c4.628-1.393,9.435-2.664,13.554-3.697c4.12-1.035,7.552-1.832,10.545-2.577c2.993-0.746,5.546-1.438,9.169-2.149
	C99.84,251.221,104.531,250.492,108.587,249.902z"/>
	<path class="botao" d="M159.023,7.286c1.271-0.022,2.59-0.058,3.758-0.103c0.994-0.04,1.88-0.087,2.535-0.14c1.424-0.116,1.759-0.26,1.976-0.381
	c0.216-0.122,0.315-0.22,0.381-0.335c0.066-0.116,0.101-0.249,0.124-0.362c0.023-0.113,0.035-0.206,0.046-0.3
	c0-0.237,0-0.71-0.144-1.36c-0.145-0.65-0.434-1.477-1.358-2.15c-0.925-0.673-2.483-1.193-4.79-1.534
	c-2.305-0.341-5.355-0.502-7.938-0.497c-2.583,0.006-4.698,0.179-6.471,0.44c-1.774,0.26-3.207,0.606-4.247,1.016
	c-1.04,0.411-1.687,0.884-2.07,1.415c-0.383,0.53-0.501,1.116-0.575,1.613c-0.073,0.497-0.102,0.904-0.117,1.108
	c-0.003,0.046-0.006,0.082-0.008,0.109c0.007,0.162,0.013,0.323,0.011,0.456c-0.003,0.132-0.014,0.236,0.243,0.36
	c0.257,0.125,0.783,0.269,1.693,0.359c0.477,0.047,1.059,0.079,1.759,0.105c0.636,0.023,1.37,0.042,2.21,0.062
	c1.765,0.044,4.001,0.095,6.217,0.124C154.474,7.32,156.669,7.326,159.023,7.286z"/>
	<path class="ilhoses" d="M221.416,58.038c0.164-0.442,0.191-1.113,0.113-1.765c-0.077-0.653-0.262-1.289-0.588-1.872
	c-0.326-0.584-0.795-1.116-1.344-1.621c-0.549-0.506-1.179-0.985-1.941-1.335c-0.762-0.349-1.658-0.569-2.52-0.67
	s-1.687-0.084-2.397,0.142c-0.71,0.225-1.306,0.658-1.661,1.097s-0.471,0.884-0.491,1.372c-0.021,0.489,0.056,1.02,0.497,1.774
	s1.251,1.731,2.331,2.513c1.081,0.783,2.433,1.373,3.496,1.63c1.063,0.257,1.837,0.182,2.289,0.131
	c0.452-0.05,0.583-0.076,0.772-0.16c0.188-0.084,0.437-0.225,0.709-0.403C220.955,58.693,221.253,58.48,221.416,58.038z
	 M54.961,40.323c0.629-0.598,1.38-1.355,1.909-1.875c0.529-0.52,0.835-0.803,1.137-1.106c0.302-0.304,0.599-0.627,0.747-0.8
	c0.147-0.174,0.144-0.197,0.12-0.233c-0.025-0.036-0.071-0.085-0.207-0.149c-0.136-0.063-0.361-0.141-0.617-0.204
	c-0.256-0.062-0.542-0.108-0.885-0.036c-0.344,0.073-0.746,0.263-1.206,0.59c-0.461,0.326-0.981,0.788-1.55,1.317
	c-0.569,0.529-1.188,1.124-1.754,1.716c-0.566,0.592-1.08,1.182-1.459,1.687c-0.378,0.506-0.621,0.928-0.754,1.32
	c-0.133,0.393-0.156,0.757-0.089,1.104c0.066,0.347,0.222,0.676,0.303,0.841c0.081,0.164,0.087,0.164,0.228-0.009
	c0.142-0.173,0.419-0.52,0.847-0.997c0.427-0.476,1.005-1.083,1.548-1.606C53.822,41.36,54.331,40.921,54.961,40.323z
	 M96.924,56.737c0.344-0.398,0.627-0.843,0.867-1.23c0.24-0.387,0.436-0.717,0.569-1.132c0.133-0.417,0.202-0.919,0.033-1.425
	c-0.169-0.505-0.576-1.014-1.061-1.391c-0.486-0.377-1.049-0.622-1.579-0.767c-0.53-0.144-1.027-0.188-1.624-0.15
	c-0.596,0.038-1.292,0.156-1.74,0.269c-0.448,0.112-0.647,0.219-1.004,0.397c-0.357,0.178-0.871,0.426-1.359,0.787
	c-0.488,0.361-0.951,0.835-1.315,1.3c-0.364,0.465-0.63,0.922-0.838,1.482c-0.207,0.561-0.358,1.225-0.332,1.875
	s0.228,1.285,0.564,1.71c0.335,0.425,0.803,0.639,1.357,0.775c0.555,0.135,1.196,0.193,1.875,0.164
	c0.679-0.029,1.396-0.144,2.141-0.419c0.745-0.274,1.519-0.708,2.109-1.1C96.176,57.489,96.581,57.136,96.924,56.737z"/>
</svg>
