<?xml version="1.0" encoding="utf-8"?>
<!-- Generator: Adobe Illustrator 16.0.3, SVG Export Plug-In . SVG Version: 6.00 Build 0)  -->
<!DOCTYPE svg PUBLIC "-//W3C//DTD SVG 1.1//EN" "http://www.w3.org/Graphics/SVG/1.1/DTD/svg11.dtd">
<svg version="1.1" class="detalhes_bone" image-rendering="optimizeQuality" text-rendering="geometricPrecision" shape-rendering="geometricPrecision" xmlns="http://www.w3.org/2000/svg" xmlns:xlink="http://www.w3.org/1999/xlink" x="0px" y="0px" width="450px" height="215px" viewBox="0 0 450 215" enable-background="new 0 0 450 215" xml:space="preserve">
	<defs>
		<path id="curva_frente_dir" d="M267.402,169.209c16.104-2.209,45.314-12.805,55.601-35.736"/>
		<path id="curva_verso_dir" fill="none" d="M0.488,184.979c1.679,6.021,34.258,7.807,50.679,7.807"/>
	</defs>
	<g class="nome_frente">
		<text>
			<textPath class="previewNome" href="#curva_frente_dir"></textPath>
		</text>
	</g>
	<g class="nome_verso">
		<text text-anchor="end">
			<textPath class="previewNome" href="#curva_verso_dir" startOffset="95%"></textPath>
		</text>
	</g>
	<path class="aba" d="M254.206,194.455c7.257,0.212,14.517,0.431,21.825,0.721c8.076,0.32,16.214,0.729,23.708,1.08
	c7.495,0.35,14.349,0.641,23.956,1.006c9.608,0.364,21.974,0.803,32.078,0.963c10.104,0.159,17.947,0.043,24.335-0.233
	c6.387-0.276,11.313-0.716,15.5-1.399c4.184-0.687,7.625-1.617,10.904-2.96c3.281-1.342,6.401-3.091,8.989-5.144
	c2.589-2.053,4.646-4.407,6.485-6.627c1.84-2.221,3.466-4.305,4.885-6.528c1.417-2.224,2.627-4.586,3.182-6.438
	c0.555-1.852,0.452-3.192,0.24-4.229c-0.211-1.035-0.532-1.764-0.853-2.41c-0.32-0.645-0.643-1.205-1.091-1.748
	c-0.447-0.543-1.023-1.068-1.626-1.443c-0.602-0.375-1.229-0.603-1.542-0.715c-0.313-0.113-0.313-0.113-0.784-0.242
	s-1.412-0.388-2.354-0.646c-0.509-0.076-1.063-0.161-1.734-0.249c-1.287-0.171-3.013-0.354-4.646-0.468
	c-1.634-0.115-3.178-0.164-4.294-0.28c-1.118-0.115-1.813-0.298-3.392-0.479c-1.578-0.182-4.046-0.365-5.583-0.433
	c-1.536-0.067-2.146-0.018-2.85-0.091c-0.704-0.072-1.507-0.268-3.208-0.449s-4.301-0.353-5.813-0.426
	c-1.515-0.072-1.938-0.049-2.559-0.115s-1.435-0.226-2.783-0.383c-1.348-0.156-3.23-0.316-4.933-0.413s-3.22-0.134-4.289-0.284
	c-1.069-0.152-1.689-0.42-3.28-0.555c-1.593-0.134-4.155-0.134-6.026-0.225c-1.872-0.092-3.051-0.273-5.067-0.461
	c-2.017-0.188-4.872-0.385-9.78-0.767c-4.908-0.383-11.871-0.954-16.52-1.3c-4.647-0.348-6.98-0.469-8.153-0.532
	c-1.172-0.063-1.186-0.071-1.192-0.079c-0.005,0.479-0.01,0.957-0.739,2.349c-0.732,1.391-2.19,3.694-4.581,6.625
	c-2.393,2.932-5.716,6.489-9.771,9.653c-4.053,3.162-8.835,5.935-13.545,8.368c-4.709,2.435-9.347,4.534-16.199,7.421
	c-6.853,2.889-15.922,6.563-21.543,8.67C257.313,193.402,255.614,193.995,254.206,194.455z M426.873,175.332
	c-1.419,2.225-3.044,4.309-4.885,6.527c-1.842,2.22-3.896,4.574-6.485,6.627c-2.588,2.054-5.708,3.803-8.989,5.145
	c-3.279,1.342-6.722,2.273-10.904,2.96c-4.187,0.685-9.113,1.123-15.5,1.399c-6.388,0.277-14.23,0.394-24.335,0.234
	c-10.104-0.162-22.47-0.6-32.078-0.964c-9.607-0.364-16.461-0.655-23.956-1.006c-7.494-0.353-15.631-0.76-23.708-1.08
	c-7.31-0.29-14.568-0.509-21.825-0.721c-1.547,0.506-2.745,0.853-3.945,1.196c-0.437,0.127-0.873,0.252-1.326,0.386
	c-2.836,0.831-6.336,1.953-12.271,3.272s-14.304,2.836-20.924,3.871c-2.551,0.398-4.841,0.728-6.908,1.004
	c8.883,1.01,17.797,2.015,27.088,2.957c10.19,1.035,20.836,1.998,31.669,2.537s21.855,0.656,34.745,0.715
	c12.89,0.06,27.645,0.06,41.6-0.189c13.954-0.247,27.104-0.743,36.567-1.385c9.464-0.643,15.237-1.43,21.594-2.641
	c6.357-1.21,13.298-2.844,18.781-5.117c5.481-2.273,9.506-5.19,13.005-7.989c3.499-2.8,6.476-5.482,8.865-8.166
	c2.392-2.683,4.2-5.365,5.233-7.414c1.035-2.048,1.299-3.464,1.443-4.689c0.097-0.807,0.143-1.532,0.17-2.23
	c-0.01-0.181-0.023-0.364-0.042-0.554c-0.103-1.08-0.347-2.31-0.833-3.476c-0.484-1.166-1.215-2.271-1.949-3.129
	c-0.734-0.856-1.477-1.465-2.339-1.992c-0.862-0.528-1.848-0.979-3.755-1.494c-1.908-0.517-4.738-1.101-7.271-1.459
	s-4.77-0.491-6.402-0.583c-1.635-0.091-2.668-0.14-3.609-0.242c-0.449-0.05-0.881-0.111-1.347-0.183
	c0.942,0.259,1.884,0.517,2.354,0.646c0.472,0.129,0.472,0.129,0.784,0.242c0.313,0.112,0.94,0.34,1.542,0.715
	c0.603,0.375,1.179,0.9,1.626,1.443c0.448,0.543,0.771,1.104,1.091,1.748c0.319,0.646,0.642,1.375,0.853,2.41
	c0.212,1.035,0.313,2.377-0.24,4.229C429.5,170.746,428.29,173.107,426.873,175.332z M352.541,214.92
	c2.521-0.054,4.98-0.134,9.153-0.27c4.17-0.137,10.051-0.332,14.188-0.539c4.139-0.205,6.531-0.424,9.12-0.66
	c2.588-0.238,5.37-0.492,8.438-0.87c3.069-0.376,6.424-0.874,9.453-1.47c3.032-0.596,5.741-1.287,8.153-1.976
	c2.412-0.687,4.526-1.366,6.695-2.217c2.169-0.853,4.393-1.871,6.677-3.117c2.285-1.245,4.63-2.715,6.513-4.04
	c1.884-1.324,3.306-2.503,4.994-3.99c1.688-1.488,3.646-3.287,5.304-5.129c1.658-1.841,3.021-3.724,4.181-5.461
	c1.16-1.736,2.121-3.33,2.795-4.938c0.675-1.61,1.063-3.238,1.246-4.454c0.182-1.215,0.157-2.016,0.163-2.887
	c0.005-0.717,0.03-1.479-0.02-2.332c-0.027,0.699-0.073,1.426-0.17,2.231c-0.146,1.228-0.408,2.642-1.443,4.689
	c-1.033,2.049-2.843,4.731-5.233,7.414c-2.392,2.684-5.366,5.366-8.865,8.165c-3.499,2.8-7.522,5.717-13.005,7.99
	c-5.483,2.273-12.424,3.907-18.781,5.117c-6.355,1.211-12.13,1.998-21.594,2.641c-9.463,0.642-22.613,1.138-36.567,1.385
	c-13.955,0.249-28.71,0.249-41.6,0.189c-12.89-0.059-23.912-0.176-34.745-0.715s-21.479-1.502-31.669-2.537
	c-9.291-0.942-18.205-1.947-27.088-2.957c-3.297,0.441-6.027,0.756-8.332,1.025c-3.75,0.441-6.383,0.77-8.117,1.016
	c-1.734,0.244-2.572,0.407-3.41,0.571c0.879-0.133,1.521-0.233,2.016-0.29c0.813-0.092,1.229-0.064,2.637,0.104
	s3.809,0.479,6.642,0.933c2.834,0.451,6.103,1.047,9.122,1.418s5.789,0.517,9.563,0.832c3.772,0.315,8.549,0.803,14.848,1.385
	c6.302,0.584,14.126,1.265,20.152,1.652c6.026,0.389,10.255,0.485,14.161,0.596s7.49,0.231,11.629,0.358
	c4.137,0.128,8.826,0.261,14.148,0.419c5.322,0.157,11.274,0.341,16.726,0.463c5.45,0.12,10.395,0.183,16.018,0.233
	s11.923,0.094,16.364,0.1C347.438,215.006,350.021,214.975,352.541,214.92z"/>
	<path class="botao" d="M155.518,5.159c0.495,0.08,1.171,0.144,2.184,0.191c1.735,0.081,4.462,0.11,7.16,0.125c1.52,0.008,3.029,0.011,4.414,0.01
	c1.073,0,2.07-0.004,2.938-0.011c1.988-0.014,3.294-0.044,4.601-0.073c0.101-0.073,0.301-0.219,0.571-0.419
	c0.271-0.2,0.611-0.455,0.793-0.731c0.183-0.277,0.207-0.574,0.14-0.966c-0.067-0.392-0.225-0.878-0.614-1.291
	c-0.389-0.414-1.008-0.753-2.074-1.084c-1.066-0.332-2.579-0.653-4.135-0.799c-1.555-0.147-3.152-0.116-4.832-0.08
	c-1.681,0.037-3.441,0.08-4.934,0.174c-1.491,0.094-2.713,0.24-3.855,0.562c-1.142,0.321-2.205,0.82-2.797,1.328
	c-0.592,0.506-0.714,1.023-0.74,1.408c-0.028,0.387,0.038,0.641,0.3,0.891c0.262,0.249,0.717,0.492,0.944,0.613
	c0.228,0.122,0.228,0.122,0.228,0.122S155.808,5.127,155.518,5.159z"/>
	<path class="ilhoses" d="M263.616,34.362c0.517,0.12,0.795,0.135,1.024,0c0.229-0.135,0.41-0.419,0.531-0.759c0.119-0.338,0.18-0.732,0.023-1.21
	c-0.151-0.477-0.516-1.038-1.372-1.666c-0.857-0.626-2.206-1.319-3.228-1.727c-1.021-0.408-1.714-0.532-2.273-0.518
	c-0.563,0.015-0.991,0.167-1.316,0.408c-0.324,0.241-0.543,0.569-0.648,0.832c-0.105,0.263-0.099,0.459,0.233,0.824
	c0.331,0.364,0.987,0.896,1.873,1.465c0.888,0.568,2.002,1.173,2.938,1.589C262.34,34.016,263.098,34.242,263.616,34.362z
	 M84.576,33.393c0.259,0.003,0.601-0.063,1.374-0.361c0.772-0.298,1.976-0.831,3.149-1.52c1.174-0.69,2.318-1.536,3.088-2.125
	c0.769-0.591,1.162-0.926,1.283-1.291c0.119-0.364-0.033-0.757-0.329-1.027c-0.295-0.27-0.732-0.417-1.119-0.459
	c-0.386-0.044-0.722,0.014-1.162,0.16c-0.441,0.146-0.988,0.379-1.677,0.708c-0.689,0.328-1.52,0.75-2.169,1.093
	c-0.648,0.342-1.116,0.605-1.531,0.903c-0.415,0.299-0.78,0.635-1.028,0.931c-0.247,0.294-0.378,0.55-0.455,0.849
	s-0.099,0.642-0.095,0.98c0.004,0.339,0.033,0.675,0.135,0.878C84.142,33.316,84.317,33.389,84.576,33.393z M173.012,36.068
	c0.619-0.011,1.268-0.105,1.913-0.31c0.646-0.204,1.287-0.517,1.681-0.955c0.395-0.438,0.539-1,0.46-1.604
	c-0.081-0.605-0.388-1.254-0.944-1.735c-0.559-0.481-1.368-0.795-2.02-0.958c-0.653-0.164-1.148-0.179-1.735-0.179
	c-0.587,0-1.265,0.015-1.907,0.215c-0.641,0.201-1.246,0.587-1.641,0.9c-0.393,0.313-0.575,0.554-0.721,0.85
	c-0.146,0.295-0.255,0.645-0.204,1.028c0.051,0.382,0.263,0.797,0.599,1.155c0.335,0.357,0.794,0.656,1.268,0.89
	c0.475,0.234,0.962,0.401,1.501,0.521C171.801,36.007,172.391,36.079,173.012,36.068z"/>
</svg>
