<?xml version="1.0" encoding="utf-8"?>
<!-- Generator: Adobe Illustrator 16.0.3, SVG Export Plug-In . SVG Version: 6.00 Build 0)  -->
<!DOCTYPE svg PUBLIC "-//W3C//DTD SVG 1.1//EN" "http://www.w3.org/Graphics/SVG/1.1/DTD/svg11.dtd">
<svg version="1.1" id="molde_bone" image-rendering="optimizeQuality" text-rendering="geometricPrecision" shape-rendering="geometricPrecision" xmlns="http://www.w3.org/2000/svg" xmlns:xlink="http://www.w3.org/1999/xlink" x="0px" y="0px" width="310px" height="280px" viewBox="0 0 310 280" enable-background="new 0 0 310 280" xml:space="preserve">
	<path d="M303.373,151.634c0.352,4.253,0.826,9.175,1.184,13.197c0.358,4.021,0.602,7.142,0.688,10.709
	c0.086,3.567,0.017,7.583-0.003,10.062c-0.021,2.479,0.008,3.42,0.089,4.713c0.081,1.291,0.214,2.932,0.269,3.923
	c0.056,0.991,0.032,1.331-0.063,2.105c-0.095,0.774-0.262,1.982-0.416,3.36c-0.153,1.378-0.292,2.926-0.424,4.044
	c-0.133,1.118-0.261,1.806-0.442,2.313c-0.182,0.51-0.419,0.838-0.67,1.088c-0.252,0.248-0.518,0.414-0.65,0.498
	c-0.035,0.023-0.063,0.041-0.082,0.054c-0.051,0.034-0.051,0.043-0.051,0.073c0,0.045,0,0.131,0.208,1.27s0.624,3.328,1.051,5.416
	c0.429,2.089,0.867,4.077,1.561,8.941c0.694,4.865,1.641,12.606,2.363,19.373c0.722,6.766,1.219,12.555,1.543,16.582
	c0.322,4.026,0.474,6.293,0.474,8.133s-0.15,3.255-0.393,4.287c-0.107,0.455-0.233,0.837-0.371,1.17
	c-0.176,0.42-0.369,0.764-0.574,1.086c-0.366,0.578-0.765,1.086-0.982,1.436c-0.216,0.35-0.251,0.54-0.397,0.963
	c-0.148,0.422-0.408,1.073-0.767,1.592c-0.357,0.517-0.814,0.897-1.201,1.164c-0.388,0.266-0.705,0.416-1.182,0.522
	s-1.111,0.17-1.791,0.156c-0.679-0.015-1.401-0.107-2.238-0.286c-0.839-0.18-1.791-0.445-2.84-0.783
	c-1.05-0.338-2.193-0.748-4.129-1.566c-1.936-0.816-4.662-2.041-7.783-3.359c-3.119-1.316-6.633-2.727-10.504-4.223
	c-3.871-1.498-8.1-3.08-12.404-4.623s-8.685-3.045-13.145-4.432c-4.461-1.387-9.002-2.658-13.768-3.877
	c-4.768-1.219-9.76-2.386-14.393-3.415c-4.635-1.028-8.91-1.918-13.556-2.721c-4.646-0.804-9.66-1.519-14.375-2.103
	c-4.714-0.584-9.129-1.035-13.946-1.451c-4.82-0.416-10.043-0.797-14.318-0.965c-4.275-0.166-7.604-0.121-10.989-0.063
	c-3.385,0.057-6.829,0.127-10.787,0.335s-8.43,0.554-12.462,0.924c-4.033,0.37-7.627,0.763-11.134,1.185
	c-3.507,0.422-6.928,0.873-10.984,1.461c-4.056,0.59-8.747,1.318-12.37,2.029c-3.623,0.711-6.176,1.403-9.169,2.149
	c-2.993,0.745-6.425,1.542-10.545,2.577c-4.119,1.033-8.926,2.305-13.554,3.697c-4.628,1.393-9.077,2.906-12.89,4.275
	c-3.814,1.369-6.991,2.594-10.343,3.895c-3.351,1.3-6.875,2.675-10.891,4.287c-4.015,1.611-8.522,3.461-11.278,4.547
	c-2.756,1.086-3.761,1.41-4.859,1.716s-2.288,0.595-3.218,0.722c-0.93,0.128-1.601,0.094-2.34-0.052
	c-0.74-0.144-1.549-0.397-2.23-1.019c-0.682-0.623-1.237-1.609-1.604-2.28c-0.367-0.671-0.546-1.022-0.953-1.681
	c-0.408-0.66-1.043-1.623-1.488-2.846c-0.07-0.193-0.135-0.393-0.196-0.6c-0.325-1.113-0.52-2.487-0.607-4.551
	c-0.104-2.451-0.058-5.871,0.196-11.349c0.255-5.478,0.717-13.012,1.266-19.644c0.548-6.633,1.184-12.365,1.724-16.945
	c0.541-4.58,0.985-8.009,1.208-9.725c0.212-1.633,0.222-1.709,0.195-1.729c-0.002-0.001-0.003-0.002-0.004-0.003
	c-0.032-0.017-0.096-0.052-0.357-0.188c-0.262-0.135-0.721-0.371-1.047-0.937c-0.327-0.565-0.521-1.457-0.727-3.377
	c-0.207-1.92-0.426-4.866-0.537-6.384c-0.112-1.52-0.115-1.608-0.217-2.594c-0.103-0.984-0.305-2.865-0.568-5.481
	c-0.263-2.616-0.586-5.967-0.748-9.665c-0.162-3.697-0.162-7.742,0.162-11.15c0.323-3.408,0.97-6.183,1.479-8.852
	c0.508-2.67,0.878-5.234,1.155-8.551c0.278-3.317,0.463-7.385,0.596-10.863c0.133-3.478,0.213-6.367,0.473-9.354
	c0.26-2.987,0.699-6.072,1.428-9.29c0.727-3.219,1.744-6.57,2.969-10.244c1.225-3.675,2.658-7.673,3.998-10.909
	c1.341-3.236,2.589-5.708,4.048-8.187s3.128-4.963,4.128-6.532c1-1.568,1.329-2.221,1.852-3.568
	c0.523-1.346,1.239-3.385,2.695-6.531s3.652-7.399,6.055-11.466c2.404-4.068,5.015-7.95,7.419-11.024
	c2.403-3.074,4.599-5.339,6.783-7.517c2.184-2.178,4.356-4.27,6.142-5.882c1.785-1.612,3.183-2.744,5.581-4.501
	c2.398-1.756,5.795-4.137,8.395-5.829c2.6-1.693,4.403-2.699,7.17-4.074s6.5-3.12,10.03-4.628c3.53-1.508,6.859-2.779,11.307-4.148
	c4.449-1.37,10.019-2.837,13.861-3.819c3.842-0.982,5.957-1.479,8.488-1.996c2.53-0.517,5.477-1.055,9.123-1.676
	c3.645-0.621,7.99-1.326,10.475-1.71c2.484-0.384,3.108-0.448,3.444-0.483c0.335-0.035,0.38-0.041,0.403-0.043
	c0.018-0.003,0.023-0.003,0.03-0.098c0.002-0.027,0.005-0.063,0.008-0.109c0.015-0.204,0.044-0.611,0.117-1.108
	c0.074-0.497,0.192-1.083,0.575-1.613c0.383-0.531,1.03-1.004,2.07-1.415c1.04-0.41,2.473-0.756,4.247-1.016
	c1.773-0.261,3.888-0.434,6.471-0.44c2.583-0.005,5.633,0.156,7.938,0.497c2.307,0.341,3.865,0.861,4.79,1.534
	c0.925,0.673,1.214,1.5,1.358,2.15c0.144,0.65,0.144,1.123,0.144,1.36s0,0.237,1.884,0.509c1.883,0.271,5.651,0.814,11.486,1.976
	c5.836,1.161,13.74,2.941,18.934,4.16c5.194,1.219,7.68,1.878,11.07,2.877c3.393,1,7.69,2.34,11.983,3.848
	c4.293,1.508,8.579,3.184,12.018,4.732c3.438,1.548,6.026,2.97,8.177,4.293c2.148,1.323,3.858,2.548,5.795,3.987
	c1.935,1.438,4.096,3.091,6.332,4.951c2.235,1.861,4.547,3.929,6.396,5.778s3.235,3.478,4.937,5.789
	c1.703,2.311,3.719,5.304,5.408,7.979c1.69,2.675,3.055,5.033,4.764,8.569c1.711,3.536,3.768,8.25,5.033,11.295
	s1.738,4.42,2.715,6.772c0.977,2.351,2.455,5.679,3.56,8.089c1.104,2.409,1.832,3.899,2.45,5.506
	c0.617,1.606,1.127,3.328,1.652,5.281c0.525,1.952,1.068,4.136,1.99,6.728c0.922,2.591,2.221,5.59,3.059,7.623
	c0.839,2.034,1.214,3.103,1.682,4.704c0.468,1.6,1.029,3.732,1.61,7.005c0.58,3.273,1.181,7.687,1.597,11.686
	C302.789,143.8,303.02,147.382,303.373,151.634z"/>
</svg>